<svg width="170" height="33" viewBox="0 0 170 33" fill="none" xmlns="http://www.w3.org/2000/svg">
<path d="M135.933 7.87609C129.053 7.87609 123.475 13.5007 123.475 20.438C123.475 27.3745 129.053 32.9992 135.933 32.9992C138.204 32.9992 140.332 32.3844 142.165 31.3148V33H148.393V20.4378C148.393 13.4999 142.815 7.87609 135.933 7.87609ZM142.162 20.4378V20.5C142.129 23.9399 139.353 26.7185 135.933 26.7185C132.492 26.7185 129.703 23.9068 129.703 20.4378C129.703 16.9692 132.492 14.156 135.933 14.156C139.374 14.156 142.162 16.9692 142.162 20.4378Z" fill="#303030"/>
<path d="M46.2791 26.2434C45.6487 26.5468 44.9441 26.7199 44.1984 26.7199C41.5232 26.7199 39.3537 24.5326 39.3537 21.8348L39.355 14.1582L44.0705 14.1571C44.0705 14.1571 44.8512 11.3887 44.8512 7.87719L39.355 7.87829V0.529592C35.8713 0.529592 33.1245 1.45762 33.1245 1.45762C33.1245 1.45762 33.1262 5.23199 33.1253 7.87637L33.1245 21.8213C33.1245 21.8259 33.1245 21.8304 33.1245 21.8348C33.1245 28.0003 38.0826 32.9997 44.1981 32.9997C46.2914 32.9997 48.2478 32.4123 49.9181 31.3939C48.3623 29.9734 47.1123 28.2191 46.2791 26.2434Z" fill="#303030"/>
<path d="M126.153 9.48195C124.484 8.4641 122.527 7.87609 120.432 7.87609C114.318 7.87609 109.359 12.8758 109.359 19.0408C109.359 19.0457 109.359 19.0499 109.359 19.0543V32.9994H115.588L115.589 19.0408C115.589 16.3435 117.758 14.156 120.432 14.156C121.179 14.156 121.884 14.3287 122.514 14.6324C123.348 12.6562 124.598 10.9024 126.153 9.48195Z" fill="#303030"/>
<path d="M3.40561 0C1.52463 0 0 1.53752 0 3.43325C0 5.33063 1.52463 6.86816 3.40561 6.86816C5.28714 6.86816 6.81177 5.33063 6.81177 3.43325C6.81177 1.53752 5.28714 0 3.40561 0Z" fill="#303030"/>
<path d="M19.9442 7.87692C13.8288 7.87692 8.87012 12.8758 8.87012 19.0413C8.87012 19.0413 8.87066 19.0499 8.87066 19.0543V33H15.0998V19.0413C15.0998 16.3435 17.2691 14.1562 19.9445 14.1562C22.621 14.1562 24.7895 16.3435 24.7895 19.0413V33H31.0189V19.0413C31.0189 12.8758 26.0608 7.87692 19.9442 7.87692Z" fill="#303030"/>
<path d="M0.291043 33H6.52046V7.87719C3.03614 7.87719 0.291043 8.80522 0.291043 8.80522V33Z" fill="#303030"/>
<path d="M73.6874 32.9994H79.9171V0.529592C76.5085 0.530694 73.8039 1.41849 73.6932 1.45569L73.6874 32.9994Z" fill="#303030"/>
<path d="M94.8931 7.87609C92.6236 7.87609 90.4977 8.4911 88.6654 9.56075L88.6637 0.529592C85.2502 0.530694 82.5414 1.42125 82.4392 1.45569C82.4392 1.45569 82.434 20.4232 82.434 20.438C82.434 27.3745 88.013 32.9992 94.8929 32.9992C101.775 32.9992 107.352 27.3745 107.352 20.438C107.353 13.5007 101.775 7.87609 94.8931 7.87609ZM94.8931 26.7185C91.4531 26.7185 88.6637 23.906 88.6637 20.4378L88.6654 20.3909C88.6905 16.9431 91.4687 14.1565 94.8931 14.1565C98.3348 14.1565 101.124 16.9687 101.124 20.4378C101.124 23.906 98.3346 26.7185 94.8931 26.7185Z" fill="#303030"/>
<path d="M71.7958 23.4128C68.5828 22.1263 65.7733 22.0332 65.7733 22.0332C64.9933 25.0581 62.0834 27.0927 58.932 26.6738C58.2242 26.5804 57.5601 26.3685 56.9559 26.0632L71.0459 15.162C69.3092 11.395 65.7582 8.57652 61.3715 7.99402C54.5516 7.08887 48.2959 11.9293 47.3979 18.8052C46.4999 25.6813 51.3009 31.989 58.1198 32.8942C64.4213 33.731 70.2392 29.4612 71.7958 23.4128ZM53.5664 19.6246C54.0159 16.1831 57.1469 13.7611 60.5588 14.2138C61.2666 14.3078 61.9307 14.52 62.5349 14.825L53.6402 21.7066C53.5044 21.0393 53.4732 20.3389 53.5664 19.6246Z" fill="#303030"/>
<path d="M162.424 17.7242L158.326 17.7201C157.35 17.7201 156.558 16.9224 156.558 15.9376C156.558 14.9539 157.35 14.156 158.326 14.156H167.275C167.312 14.0438 168.193 11.3383 168.194 7.90227C168.194 7.90227 158.501 7.90144 157.904 7.90144C153.721 7.90144 150.329 11.3209 150.329 15.5395C150.329 19.758 153.721 23.1808 157.904 23.1808H162.002C162.979 23.1808 163.77 23.9788 163.77 24.963C163.77 25.9472 162.979 26.7449 162.002 26.7449H151.851C151.814 26.8568 150.933 29.5626 150.933 32.9989C150.933 32.9989 162.274 32.9994 162.424 32.9994C166.608 32.9994 170 29.5805 170 25.3614C170 21.1437 166.608 17.7242 162.424 17.7242Z" fill="#303030"/>
</svg>
