<svg width="196" height="30" viewBox="0 0 196 30" fill="none" xmlns="http://www.w3.org/2000/svg">
<path d="M47.1522 27.5749C47.0345 25.8535 46.9704 24.3673 46.9383 22.6672C46.9383 20.4005 46.8635 18.4973 46.8528 16.252C46.8482 15.0964 46.6937 13.9463 46.393 12.8305C46.2138 12.0887 45.8803 11.393 45.4142 10.7887C44.9481 10.1845 44.3599 9.68521 43.6879 9.32349C42.8865 8.86582 42.0163 8.54085 41.1111 8.3612C38.2556 7.71133 35.2973 7.65311 32.4184 8.19012C31.6063 8.3178 30.8128 8.544 30.0555 8.86373C29.1684 9.21648 28.3732 9.76664 27.7304 10.4725C27.0875 11.1783 26.6139 12.0213 26.3453 12.9374C26.1195 13.6263 26.0501 14.3568 26.1422 15.0758C26.155 15.2108 26.195 15.3417 26.2598 15.4607L33.2738 15.6318C33.2559 15.2054 33.325 14.7797 33.477 14.3808C33.5827 14.0737 33.7571 13.7946 33.9868 13.5649C34.2165 13.3351 34.4956 13.1608 34.8028 13.055C35.7035 12.7237 36.6927 12.7237 37.5934 13.055C37.8966 13.1441 38.1723 13.3084 38.3948 13.5328C38.6172 13.7571 38.7793 14.0342 38.8658 14.3381C38.9208 14.5175 38.9339 14.7072 38.9043 14.8925C38.8746 15.0779 38.8029 15.2539 38.6947 15.4073C38.4945 15.6911 38.2158 15.9103 37.8928 16.0381L37.2834 16.2306C36.3104 16.4872 35.4764 16.669 34.482 16.84C33.6908 16.9683 33.0279 17.0859 32.2367 17.2463C31.2281 17.4486 30.232 17.7092 29.2536 18.0269C28.3579 18.3152 27.5366 18.797 26.8479 19.4382C25.9164 20.266 25.3226 21.4079 25.1799 22.6458C25.0514 23.4569 25.0841 24.2853 25.2761 25.0836C25.4958 26.1283 25.9992 27.0922 26.7311 27.8694C27.463 28.6466 28.395 29.2069 29.4247 29.4888C31.6844 30.1715 34.1112 30.0468 36.289 29.1359C37.3646 28.7222 38.3123 28.0326 39.0369 27.1365L38.4916 23.5226C38.1639 24.0499 37.6825 24.4641 37.1123 24.7094C36.5685 24.9549 35.9858 25.1033 35.3908 25.1478C34.9461 25.1925 34.4969 25.1563 34.065 25.0409C33.6855 24.9421 33.3434 24.7338 33.0814 24.4421C32.8448 24.206 32.6846 23.9043 32.6216 23.576C32.562 23.3137 32.5797 23.0398 32.6727 22.7873C32.7657 22.5349 32.9299 22.3149 33.1455 22.154C33.3945 21.9288 33.685 21.7545 34.0009 21.6408C34.8135 21.3414 35.5085 21.1169 36.3531 20.8816C37.3111 20.6024 38.2445 20.2448 39.1438 19.8124C39.2475 20.5215 39.2475 21.2418 39.1438 21.9508C39.0903 22.5108 38.9033 23.0498 38.5985 23.5226L39.0903 27.1151C39.2507 27.6177 39.3897 28.0453 39.5608 28.5479C39.6575 28.8089 39.7985 29.0513 39.9778 29.2642H47.7081C47.3753 28.7609 47.1833 28.1776 47.1522 27.5749Z" fill="#303030"/>
<path d="M94.0049 27.5749C93.8873 25.8534 93.8339 24.3672 93.7911 22.6672C93.7911 20.4005 93.7162 18.4973 93.6949 16.2519C93.6923 15.0976 93.545 13.9482 93.2565 12.8305C93.0717 12.0895 92.7349 11.3952 92.2673 10.7914C91.7998 10.1877 91.2118 9.68776 90.5407 9.32346C89.7388 8.86697 88.8688 8.54208 87.9639 8.36117C85.1048 7.71134 82.143 7.65312 79.2605 8.1901C78.4519 8.31778 77.6619 8.544 76.9083 8.8637C76.0179 9.21303 75.2195 9.76191 74.5744 10.4681C73.9294 11.1743 73.4549 12.0191 73.1874 12.9374C72.967 13.6274 72.8978 14.3567 72.9843 15.0758C73.0021 15.2097 73.0418 15.3397 73.1019 15.4607L80.1266 15.6318C80.105 15.2061 80.1705 14.7804 80.3191 14.3808C80.4248 14.0736 80.5992 13.7946 80.8289 13.5649C81.0586 13.3351 81.3377 13.1608 81.6449 13.055C82.5456 12.7237 83.5348 12.7237 84.4355 13.055C84.7387 13.144 85.0144 13.3084 85.2369 13.5328C85.4593 13.7571 85.6214 14.0342 85.7079 14.3381C85.7629 14.5175 85.776 14.7072 85.7464 14.8925C85.7167 15.0778 85.645 15.2539 85.5368 15.4073C85.3389 15.6933 85.0595 15.9131 84.7349 16.0381L84.1255 16.2306C83.1525 16.4872 82.3185 16.6689 81.3241 16.84C80.5329 16.9683 79.87 17.0859 79.0895 17.2463C78.0806 17.4473 77.0844 17.7079 76.1064 18.0268C75.204 18.3074 74.3776 18.7901 73.69 19.4382C72.7402 20.2571 72.1302 21.4009 71.9792 22.6458C71.8507 23.4568 71.8834 24.2852 72.0755 25.0836C72.2996 26.1263 72.8045 27.088 73.5357 27.8644C74.267 28.6408 75.1966 29.2025 76.224 29.4888C78.4837 30.1715 80.9105 30.0468 83.0883 29.1359C84.1593 28.7192 85.1028 28.03 85.8255 27.1365L85.323 23.5226C84.9953 24.0499 84.514 24.4641 83.9437 24.7094C83.4151 24.9448 82.8518 25.0929 82.2757 25.1478C81.795 25.2002 81.3087 25.1603 80.843 25.0301C80.4603 24.9315 80.1148 24.7234 79.8486 24.4314C79.6213 24.1943 79.4656 23.8978 79.3995 23.576C79.3418 23.3235 79.3551 23.0599 79.4382 22.8145C79.5212 22.5691 79.6707 22.3516 79.87 22.1861C80.1221 21.9652 80.4118 21.7914 80.7254 21.6728C81.538 21.3841 82.2436 21.1489 83.0776 20.9137C84.0379 20.6311 84.9746 20.2736 85.879 19.8445C85.9619 20.5549 85.9619 21.2725 85.879 21.9829C85.8129 22.5333 85.6188 23.0606 85.3123 23.5226L85.8148 27.1151C85.9645 27.6176 86.1035 28.0453 86.2853 28.5479C86.3767 28.8137 86.5223 29.0576 86.7129 29.2642H94.4433C94.1532 28.7487 94.0021 28.1665 94.0049 27.5749Z" fill="#303030"/>
<path d="M130.615 7.95499C129.053 7.70909 127.462 7.70909 125.899 7.95499C123.596 8.28421 121.46 9.34499 119.805 10.9809C117.978 12.6783 116.863 15.0051 116.683 17.4923C116.524 19.0007 116.658 20.5256 117.078 21.983C117.674 24.249 119.024 26.2442 120.906 27.6391C122.112 28.5873 123.521 29.2425 125.023 29.553C127.137 30.0051 129.323 30.0051 131.438 29.553C132.94 29.2425 134.349 28.5873 135.554 27.6391L131.074 22.7529C130.905 23.1292 130.662 23.4684 130.361 23.7511C130.06 24.0338 129.707 24.2544 129.32 24.4003C128.934 24.5463 128.523 24.6147 128.11 24.6017C127.698 24.5887 127.291 24.4946 126.915 24.3246C126.207 24.0213 125.641 23.4591 125.333 22.7529C125.042 22.1143 124.844 21.4374 124.745 20.7427C124.52 19.348 124.553 17.9238 124.841 16.5407C124.972 15.8222 125.248 15.1381 125.654 14.5306C126.098 13.8585 126.791 13.3899 127.581 13.2276C128.371 13.0653 129.192 13.2224 129.866 13.6646C130.215 13.8856 130.511 14.1814 130.732 14.5306C131.159 15.131 131.451 15.8168 131.588 16.5407C131.868 17.9249 131.897 19.3483 131.673 20.7427C131.579 21.4372 131.385 22.1144 131.096 22.7529L135.576 27.6391C137.458 26.2467 138.806 24.25 139.393 21.983C139.821 20.5272 139.959 19.0014 139.799 17.4923C139.62 15.0051 138.504 12.6783 136.677 10.9809C135.031 9.35109 132.907 8.29077 130.615 7.95499Z" fill="#303030"/>
<path d="M14.2205 20.2294H8.87444V13.3544H12.3066C12.9695 13.3544 13.5255 13.3544 14.1884 13.301C14.6251 13.2858 15.0525 13.1709 15.4379 12.9652C15.8234 12.7595 16.1567 12.4684 16.4124 12.1141C16.6909 11.7406 16.871 11.3031 16.9363 10.8418C16.9788 10.4545 16.9788 10.0637 16.9363 9.67635C16.8693 8.94473 16.5298 8.26499 15.9852 7.77188C15.4406 7.27876 14.7306 7.00827 13.996 7.01402H8.84236V29.2108H0V0H14.4985C15.0759 0 15.5677 0 16.1344 0C18.8421 0.157125 21.3766 1.38284 23.181 3.40777C24.9854 5.43271 25.912 8.0912 25.7573 10.799C25.7573 10.9915 25.7573 11.1839 25.7573 11.3871C25.5666 13.3975 24.737 15.294 23.3901 16.7986C22.0433 18.3033 20.2499 19.337 18.2728 19.7483C16.9454 20.0659 15.5854 20.2274 14.2205 20.2294Z" fill="#303030"/>
<path d="M105.584 21.5659C106.152 21.6518 106.711 21.7914 107.252 21.9829C107.491 22.0566 107.704 22.196 107.866 22.3851C108.029 22.5742 108.135 22.8054 108.172 23.0521C108.229 23.3067 108.22 23.5715 108.147 23.8219C108.074 24.0724 107.939 24.3004 107.755 24.4848C107.38 24.8633 106.892 25.1108 106.365 25.1905C105.647 25.3186 104.908 25.2483 104.227 24.9874C103.916 24.8684 103.627 24.6986 103.371 24.4848C103.024 24.212 102.77 23.8385 102.644 23.4156C102.527 23.0534 102.473 22.6736 102.484 22.293H94.8817V22.742C94.879 23.4252 95.0023 24.103 95.2452 24.7415C95.606 25.7127 96.1966 26.5822 96.9667 27.2755C97.9434 28.2077 99.138 28.8804 100.442 29.2321C103.125 30.0297 105.955 30.2088 108.717 29.7561C110.014 29.5702 111.27 29.1614 112.427 28.5478C112.94 28.2823 113.421 27.9594 113.86 27.5856C114.863 26.7694 115.592 25.6667 115.952 24.4248C116.311 23.1829 116.282 21.861 115.87 20.6357C115.594 19.6819 115.048 18.8281 114.299 18.1765C113.31 17.2992 112.137 16.656 110.866 16.2947L110 16.0595C108.449 15.6222 106.87 15.2865 105.274 15.0544C104.825 14.9903 104.419 14.9047 104.002 14.8085C103.81 14.767 103.623 14.7024 103.446 14.616C103.22 14.5131 103.043 14.3257 102.953 14.0939C102.863 13.8621 102.867 13.6044 102.965 13.3758V13.3116C103.195 12.8973 103.579 12.5901 104.034 12.4562C104.87 12.1727 105.775 12.1727 106.611 12.4562C107.035 12.5781 107.404 12.8425 107.655 13.2049C107.906 13.5673 108.025 14.0053 107.99 14.445H115.357C115.358 13.5804 115.206 12.7224 114.908 11.9109C114.618 11.0877 114.094 10.3669 113.4 9.83667C112.811 9.35674 112.146 8.97741 111.433 8.714C110.745 8.43373 110.028 8.23284 109.295 8.11524C107.567 7.80181 105.808 7.70127 104.056 7.81587C103.05 7.87116 102.051 8.0179 101.072 8.25424C99.748 8.54198 98.5077 9.13103 97.4478 9.97567C96.5176 10.6694 95.8233 11.6325 95.4591 12.7342C95.2804 13.2252 95.1794 13.7411 95.1597 14.2632C95.1073 15.1433 95.2534 16.024 95.5874 16.84C95.8635 17.5718 96.2925 18.2364 96.8455 18.7895C97.3986 19.3426 98.0632 19.7715 98.795 20.0476C99.5271 20.3448 100.286 20.5704 101.062 20.7212L105.584 21.5659Z" fill="#303030"/>
<path d="M56.3902 10.564C57.3521 9.70203 58.4322 8.98195 59.5978 8.42557C61.521 7.50606 63.7202 7.34569 65.7565 7.9765C66.8568 8.2765 67.8624 8.85225 68.6781 9.64928C69.4939 10.4463 70.0928 11.4383 70.4182 12.5313C70.7586 13.5659 70.9248 14.6499 70.91 15.739V29.211H62.6771V17.1076C62.6683 16.7451 62.6108 16.3855 62.5061 16.0383C62.4066 15.7029 62.2329 15.3942 61.9978 15.1351C61.7627 14.8759 61.4723 14.6731 61.1482 14.5415C60.4463 14.2399 59.6582 14.206 58.9331 14.4464C58.208 14.6868 57.5962 15.1847 57.2135 15.8459C56.8825 16.3898 56.712 17.0162 56.7216 17.6528V29.2324H48.7133V8.36142H56.1977L56.3902 10.564Z" fill="#303030"/>
<path d="M148.706 10.564C149.667 9.70134 150.747 8.98118 151.913 8.42557C153.836 7.50606 156.036 7.34569 158.072 7.9765C159.172 8.2765 160.178 8.85225 160.994 9.64928C161.809 10.4463 162.408 11.4383 162.734 12.5313C163.075 13.5658 163.241 14.6498 163.226 15.739V29.211H154.939V17.1076C154.942 16.7232 154.884 16.3408 154.768 15.9742C154.673 15.6399 154.503 15.3315 154.272 15.0722C154.04 14.8129 153.753 14.6095 153.432 14.4773C152.725 14.1883 151.938 14.1609 151.213 14.4C150.488 14.6391 149.872 15.129 149.475 15.7817C149.152 16.3286 148.986 16.9537 148.994 17.5887V29.2324H140.965V8.36142H148.449L148.706 10.564Z" fill="#303030"/>
<path d="M172.667 8.37199H164.861V29.243H172.667V8.37199Z" fill="#303030"/>
<path d="M172.667 0.0214051H164.861V5.53853H172.667V0.0214051Z" fill="#303030"/>
<path d="M193.623 26.5165C192.143 28.1276 190.181 29.2155 188.031 29.6172C186.59 29.9197 185.11 29.9883 183.647 29.8204C181.697 29.6346 179.842 28.8923 178.301 27.6819C177.011 26.7425 175.938 25.5353 175.158 24.1429C174.529 23.0884 174.108 21.9234 173.918 20.7107C173.617 19.0238 173.705 17.2906 174.174 15.6426C174.657 13.7481 175.668 12.0298 177.09 10.6877C178.511 9.34556 180.285 8.43497 182.204 8.06195C184.377 7.59064 186.632 7.64562 188.78 8.22233C190.32 8.60142 191.735 9.37528 192.885 10.4677C193.616 11.1414 194.224 11.9374 194.682 12.8199C195.239 13.8625 195.495 15.0401 195.419 16.22H188.288C188.219 15.7626 188.061 15.3231 187.823 14.9269C187.584 14.5306 187.27 14.1852 186.898 13.9105C186.424 13.555 185.854 13.3515 185.262 13.3267C184.67 13.3019 184.085 13.457 183.583 13.7715C182.882 14.2022 182.365 14.8759 182.129 15.664C181.51 17.5192 181.476 19.5201 182.033 21.395C182.232 22.2091 182.663 22.9481 183.273 23.5227C183.608 23.8521 184.016 24.0975 184.464 24.2387C184.912 24.38 185.387 24.4131 185.85 24.3353C186.433 24.2585 186.968 23.9737 187.358 23.5334C187.768 23.0774 188.039 22.5134 188.138 21.9082C188.216 21.495 188.266 21.0771 188.288 20.6572H195.772C195.851 21.7305 195.7 22.8083 195.33 23.8187C194.959 24.829 194.377 25.7487 193.623 26.5165Z" fill="#303030"/>
</svg>
