<svg width="187" height="29" viewBox="0 0 187 29" fill="none" xmlns="http://www.w3.org/2000/svg">
<path fill-rule="evenodd" clip-rule="evenodd" d="M0.578507 27.9825V22.4614C3.77891 23.4522 6.61055 23.9459 9.07682 23.9459C12.4768 23.9459 14.1751 23.0619 14.1751 21.3005C14.1751 20.6433 13.9282 20.0928 13.4342 19.6425C12.9268 19.1688 11.6243 18.5082 9.5403 17.6675C5.79184 16.153 3.34925 14.8653 2.21254 13.7978C0.734129 12.3966 0 10.6185 0 8.47682C0 5.71126 1.07582 3.60623 3.2207 2.1584C5.33851 0.723916 8.10249 0.00667203 11.5093 0.00667203C13.3869 0.00667203 16.1069 0.346946 19.6591 1.02416V6.3351C17.0135 5.2976 14.5608 4.78051 12.2907 4.78051C9.09712 4.78051 7.5003 5.64454 7.5003 7.36926C7.5003 8.01645 7.82169 8.53687 8.46448 8.9472C9.00239 9.27746 10.4808 9.97136 12.8896 11.0389C16.364 12.5534 18.678 13.8678 19.8316 14.9854C21.2018 16.3165 21.8852 18.0312 21.8852 20.1395C21.8852 23.1653 20.5455 25.4738 17.8593 27.0618C15.6874 28.3528 12.8659 29 9.40836 29C6.48537 29 3.53871 28.6597 0.575124 27.9825H0.578507ZM26.3779 28.4329V0.493731H34.3315V28.4329H26.3779ZM41.6322 28.4329V0.493731H62.0356V5.54446H49.2983V11.8529H60.3914V16.4599H49.2983V23.0919H62.3672V28.4295H41.6356L41.6322 28.4329ZM67.5602 28.4329V0.493731H77.8752L85.0406 18.3448L92.3819 0.493731H102.176V28.4329H94.635V8.65363L86.2822 28.7164H81.353L73.1592 8.65363V28.4329H67.5534H67.5602ZM109.477 28.4329V0.493731H129.88V5.54446H117.143V11.8529H128.229V16.4599H117.143V23.0919H130.208V28.4295H109.477V28.4329ZM135.445 28.4329V0.493731H144.664L154.445 19.1954V0.493731H160.047V28.4329H151.089L141.048 9.47763V28.4329H135.442H135.445ZM165.693 27.9825V22.4614C168.87 23.4522 171.702 23.9459 174.192 23.9459C177.595 23.9459 179.297 23.0619 179.297 21.3005C179.297 20.6433 179.053 20.0928 178.573 19.6425C178.069 19.1688 176.759 18.5082 174.659 17.6675C170.924 16.1697 168.474 14.8753 167.327 13.7978C165.856 12.4033 165.115 10.6219 165.115 8.4468C165.115 5.69792 166.191 3.6029 168.336 2.15173C170.457 0.717244 173.221 0 176.631 0C178.549 0 181.029 0.303578 184.077 0.900725L184.781 1.01749V6.32843C182.135 5.29092 179.672 4.77384 177.392 4.77384C174.209 4.77384 172.622 5.63787 172.622 7.36259C172.622 8.00978 172.94 8.5302 173.583 8.94053C174.094 9.25411 175.579 9.95468 178.028 11.0322C181.475 12.5468 183.786 13.8612 184.95 14.9787C186.317 16.3098 187 18.0245 187 20.1329C187 23.1586 185.667 25.4672 182.994 27.0551C180.809 28.3461 177.987 28.9933 174.527 28.9933C171.6 28.9933 168.654 28.6531 165.69 27.9758L165.693 27.9825Z" fill="#303030"/>
</svg>
