<svg width="128" height="102" viewBox="0 0 128 102" fill="none" xmlns="http://www.w3.org/2000/svg">
<path d="M14.0148 67.5322V80.1221C14.0148 84.988 8.64483 85.1175 8.64483 85.1175C8.64483 85.1175 3.2749 84.988 3.2749 80.1221V67.5322C3.2749 67.5322 3.02147 65.3499 0 65.3499V80.4178C0 80.4178 0.540654 87.9672 8.64483 87.9672C16.749 87.9672 17.2897 80.4178 17.2897 80.4178V65.3499C14.2682 65.3499 14.0148 67.5322 14.0148 67.5322Z" fill="#303031"/>
<path d="M88.9178 67.5322V80.1221C88.9178 84.988 83.5479 85.1175 83.5479 85.1175C83.5479 85.1175 78.1723 84.988 78.1723 80.1221V67.5322C78.1723 67.5322 77.9189 65.3499 74.8974 65.3499V80.4178C74.8974 80.4178 75.4437 87.9672 83.5451 87.9672C91.6464 87.9672 92.1899 80.4178 92.1899 80.4178V65.3499C89.1656 65.3499 88.915 67.5322 88.915 67.5322H88.9178Z" fill="#303031"/>
<path d="M46.9552 65.3499C43.9337 65.3499 43.6803 67.5322 43.6803 67.5322V87.6969H46.9552V65.3499Z" fill="#303031"/>
<path d="M101.218 65.3499C98.1934 65.3499 97.9428 67.5322 97.9428 67.5322V87.6969H101.218V65.3499Z" fill="#303031"/>
<path d="M126.642 65.3499C123.621 65.3499 123.373 67.5322 123.373 67.5322V87.6969H126.642V65.3499Z" fill="#303031"/>
<path d="M34.5343 76.1827C34.5343 76.1827 37.6796 74.7128 37.6796 71.1056C37.6796 67.4984 34.4526 65.3527 31.3438 65.3527H22.9721V87.7025H33.6754C33.6754 87.7025 38.3104 86.4635 38.3104 82.2256C38.3104 77.9877 35.8324 76.1855 34.5371 76.1855L34.5343 76.1827ZM26.0978 68.2925H31.0932C31.9718 68.2925 34.4047 68.5431 34.4047 71.6491C34.4047 74.755 31.1355 74.924 31.1355 74.924H26.0978V68.2925ZM31.9718 85.0556H26.0978V77.5625H32.1013C32.5997 77.5625 35.1819 78.0074 35.1819 81.3076C35.1819 84.6079 31.9718 85.0528 31.9718 85.0528V85.0556Z" fill="#303031"/>
<path d="M71.3156 84.8022H67.286C67.286 84.8022 70.4962 81.7779 70.4962 76.8106C70.4962 71.8434 68.2519 65.3499 60.5926 65.3499C60.5926 65.3499 51.6972 64.7867 51.0242 76.5234C51.0242 88.0123 60.5926 87.6969 60.5926 87.6969C63.3578 87.252 65.9626 87.3365 68.0576 87.3365H73.2642C73.2642 87.3365 73.0417 84.8022 71.3128 84.8022H71.3156ZM60.8263 85.1626C56.5236 85.1626 54.4652 81.3499 54.4652 76.6614C54.4652 71.9729 56.4814 68.1602 60.8263 68.1602C65.1713 68.1602 67.1818 71.9616 67.1818 76.6614C67.1818 81.3611 65.1291 85.1626 60.8263 85.1626Z" fill="#303031"/>
<path d="M120.602 65.3499H104.456V68.1517H120.602V65.3499Z" fill="#303031"/>
<path d="M114.247 65.3499H111.13V87.6997H114.247V65.3499Z" fill="#303031"/>
<path d="M43.0664 0.46582H39.8648V3.75761H43.0664V0.46582Z" fill="#8F9090"/>
<path d="M49.4248 17.1951H46.2287V20.4925H49.4248V17.1951Z" fill="#8F9090"/>
<path d="M49.4248 6.92832H46.2287V10.2229H49.4248V6.92832Z" fill="#8F9090"/>
<path d="M52.6264 3.63371H49.4248V6.92551H52.6264V3.63371Z" fill="#8F9090"/>
<path d="M52.6264 12.4503H49.4248V15.7421H52.6264V12.4503Z" fill="#8F9090"/>
<path d="M55.8197 8.4123H52.6236V11.7041H55.8197V8.4123Z" fill="#8F9090"/>
<path fill-rule="evenodd" clip-rule="evenodd" d="M39.8648 9.18949H43.0664V26.8677H46.1696V23.7224H49.4642V30.6467H52.6602V19.0705H55.8563V43.0001C55.8563 43.0001 56.2927 52.836 65.4501 58.1637C56.0027 58.1637 39.8676 53.9004 39.8676 34.8142V9.18949H39.8648Z" fill="#8F9090"/>
<path fill-rule="evenodd" clip-rule="evenodd" d="M57.5458 45.8131C57.5458 45.8131 59.2438 54.1398 68.2998 58.1637C76.6348 58.1637 92.5222 51.4759 90.9734 33.0684C90.9734 33.0684 85.0938 56.1644 57.5458 45.8131Z" fill="#5A5A5A"/>
<path fill-rule="evenodd" clip-rule="evenodd" d="M74.5989 46.6833C74.5989 46.6833 87.3099 45.9511 91.0776 28.8051V0.89947C91.0776 0.89947 75.0833 -0.942132 75.0833 10.8819C75.0833 22.7058 74.5961 46.6833 74.5961 46.6833H74.5989Z" fill="black"/>
<path d="M2.01056 94.4494L4.9926 99.2618H5.00949V94.4494H6.09925V100.982H4.89123L1.91763 96.1812H1.88947V100.982H0.799717V94.4494H2.01056Z" fill="#303031"/>
<path d="M22.7863 94.4494V95.4378H19.227V97.1499H22.5188V98.082H19.227V99.994H22.8482V100.982H18.0809V94.4494H22.7863Z" fill="#303031"/>
<path d="M34.1485 94.4494H39.4367V95.4378H37.3614V100.982H36.2182V95.4378H34.1513V94.4494H34.1485Z" fill="#303031"/>
<path d="M50.7426 94.4494H51.9056L53.0854 99.4449H53.1023L54.4202 94.4494H55.5916L56.8728 99.4449H56.8897L58.1062 94.4494H59.2692L57.467 100.982H56.304L54.9946 95.9869H54.9777L53.643 100.982H52.4631L50.7426 94.4494Z" fill="#303031"/>
<path d="M76.2547 97.7131C76.2547 99.58 75.0833 101.134 73.1262 101.134C71.1692 101.134 69.9977 99.58 69.9977 97.7131C69.9977 95.8461 71.1692 94.2918 73.1262 94.2918C75.0833 94.2918 76.2547 95.8461 76.2547 97.7131ZM71.141 97.7131C71.141 98.9662 71.7267 100.202 73.1262 100.202C74.5257 100.202 75.1114 98.969 75.1114 97.7131C75.1114 96.4572 74.5257 95.2238 73.1262 95.2238C71.7267 95.2238 71.141 96.46 71.141 97.7131Z" fill="#303031"/>
<path d="M88.2364 94.4832H91.3564C92.784 94.4832 93.5162 95.1422 93.5162 96.2488C93.5162 97.5019 92.6461 97.8229 92.4377 97.8961V97.9158C92.8319 97.9721 93.4064 98.2622 93.4064 99.2984C93.4064 100.059 93.5162 100.751 93.764 101.019H92.5391C92.3645 100.735 92.3645 100.38 92.3645 100.059C92.3645 98.8591 92.1167 98.3298 91.0663 98.3298H89.3824V101.019H88.2392V94.4861L88.2364 94.4832ZM89.3796 97.4568H91.255C91.9787 97.4568 92.3701 97.0992 92.3701 96.4149C92.3701 95.5814 91.8295 95.4181 91.2353 95.4181H89.3768V97.4596L89.3796 97.4568Z" fill="#303031"/>
<path d="M105.343 94.4832H106.486V97.4568L109.395 94.4832H110.803L108.195 97.0908L110.986 101.016H109.558L107.418 97.8961L106.486 98.8197V101.016H105.343V94.4832Z" fill="#303031"/>
<path d="M122.92 98.8394C122.92 99.8447 123.66 100.239 124.576 100.239C125.581 100.239 125.958 99.7462 125.958 99.2506C125.958 98.755 125.685 98.5466 125.418 98.4452C124.961 98.2706 124.364 98.1524 123.469 97.9046C122.354 97.6033 122.024 96.9246 122.024 96.2488C122.024 94.9394 123.232 94.3284 124.412 94.3284C125.775 94.3284 126.918 95.052 126.918 96.4149H125.775C125.719 95.573 125.153 95.2632 124.367 95.2632C123.838 95.2632 123.168 95.4547 123.168 96.1136C123.168 96.5698 123.477 96.8261 123.945 96.9556C124.046 96.9838 125.491 97.3583 125.829 97.4596C126.688 97.7159 127.101 98.448 127.101 99.1238C127.101 100.588 125.803 101.174 124.502 101.174C123.01 101.174 121.805 100.461 121.777 98.8422H122.92V98.8394Z" fill="#303031"/>
</svg>
