<svg width="1169" height="84" viewBox="0 0 1169 84" fill="none" xmlns="http://www.w3.org/2000/svg">
<circle cx="584" cy="42" r="41.5" stroke="white" stroke-opacity="0.15"/>
<circle cx="584" cy="42" r="21.5" stroke="white"/>
<path d="M578.296 39.2939C578.493 39.098 578.744 39 579.049 39C579.354 39 579.605 39.098 579.803 39.2939L584 43.4618L588.197 39.2939C588.395 39.098 588.646 39 588.951 39C589.256 39 589.507 39.098 589.704 39.2939C589.901 39.4898 590 39.7392 590 40.042C590 40.3448 589.901 40.5941 589.704 40.7901L584.753 45.7061C584.646 45.813 584.529 45.8888 584.404 45.9337C584.278 45.9786 584.143 46.0007 584 46C583.857 46 583.722 45.9775 583.596 45.9327C583.471 45.8878 583.354 45.8122 583.247 45.7061L578.296 40.7901C578.099 40.5941 578 40.3448 578 40.042C578 39.7392 578.099 39.4898 578.296 39.2939Z" fill="white"/>
<rect x="1165" y="40" width="4" height="4" fill="white"/>
<rect x="865" y="40" width="4" height="4" fill="white"/>
<rect x="300" y="40" width="4" height="4" fill="white"/>
<rect y="40" width="4" height="4" fill="white"/>
</svg>
