<svg width="54" height="54" viewBox="0 0 54 54" fill="none" xmlns="http://www.w3.org/2000/svg">
<circle cx="27" cy="27" r="27" fill="#EDE4DB"/>
<path d="M29.7061 21.296C29.902 21.4933 30 21.7444 30 22.0493C30 22.3543 29.902 22.6054 29.7061 22.8027L25.5382 27L29.7061 31.1973C29.902 31.3946 30 31.6457 30 31.9507C30 32.2556 29.902 32.5067 29.7061 32.704C29.5102 32.9013 29.2608 33 28.958 33C28.6552 33 28.4059 32.9013 28.2099 32.704L23.2939 27.7534C23.187 27.6457 23.1112 27.5291 23.0663 27.4036C23.0214 27.278 22.9993 27.1435 23 27C23 26.8565 23.0225 26.722 23.0673 26.5964C23.1122 26.4709 23.1878 26.3543 23.2939 26.2466L28.2099 21.296C28.4059 21.0987 28.6552 21 28.958 21C29.2608 21 29.5102 21.0987 29.7061 21.296Z" fill="#354739"/>
</svg>
