<svg width="54" height="54" viewBox="0 0 54 54" fill="none" xmlns="http://www.w3.org/2000/svg">
<circle cx="27" cy="27" r="27" transform="matrix(-1 0 0 1 54 0)" fill="#EDE4DB"/>
<path d="M24.2939 21.296C24.098 21.4933 24 21.7444 24 22.0493C24 22.3543 24.098 22.6054 24.2939 22.8027L28.4618 27L24.2939 31.1973C24.098 31.3946 24 31.6457 24 31.9507C24 32.2556 24.098 32.5067 24.2939 32.704C24.4898 32.9013 24.7392 33 25.042 33C25.3448 33 25.5941 32.9013 25.7901 32.704L30.7061 27.7534C30.813 27.6457 30.8888 27.5291 30.9337 27.4036C30.9786 27.278 31.0007 27.1435 31 27C31 26.8565 30.9775 26.722 30.9327 26.5964C30.8878 26.4709 30.8122 26.3543 30.7061 26.2466L25.7901 21.296C25.5941 21.0987 25.3448 21 25.042 21C24.7392 21 24.4898 21.0987 24.2939 21.296Z" fill="#354739"/>
</svg>
