<svg width="12" height="9" viewBox="0 0 12 9" fill="none" xmlns="http://www.w3.org/2000/svg">
<path d="M3.575 6.38752L9.475 0.487524C9.65833 0.304191 9.89167 0.212524 10.175 0.212524C10.4583 0.212524 10.6917 0.304191 10.875 0.487524C11.0583 0.670857 11.15 0.904191 11.15 1.18752C11.15 1.47086 11.0583 1.70419 10.875 1.88752L4.275 8.48752C4.075 8.68752 3.84167 8.78752 3.575 8.78752C3.30833 8.78752 3.075 8.68752 2.875 8.48752L0.275 5.88752C0.0916663 5.70419 0 5.47086 0 5.18752C0 4.90419 0.0916663 4.67086 0.275 4.48752C0.458333 4.30419 0.691667 4.21252 0.975 4.21252C1.25833 4.21252 1.49167 4.30419 1.675 4.48752L3.575 6.38752Z" fill="#354739"/>
</svg>
