<svg width="20" height="21" viewBox="0 0 20 21" fill="none" xmlns="http://www.w3.org/2000/svg">
<path d="M17 3.41003C16.0832 2.48395 14.9912 1.7497 13.7876 1.25008C12.5841 0.750463 11.2931 0.495489 9.99 0.500029C4.53 0.500029 0.0800002 4.95003 0.0800002 10.41C0.0800002 12.16 0.54 13.86 1.4 15.36L0 20.5L5.25 19.12C6.7 19.91 8.33 20.33 9.99 20.33C15.45 20.33 19.9 15.88 19.9 10.42C19.9 7.77003 18.87 5.28003 17 3.41003ZM9.99 18.65C8.51 18.65 7.06 18.25 5.79 17.5L5.49 17.32L2.37 18.14L3.2 15.1L3 14.79C2.17775 13.477 1.74114 11.9593 1.74 10.41C1.74 5.87003 5.44 2.17003 9.98 2.17003C12.18 2.17003 14.25 3.03003 15.8 4.59003C16.5675 5.35399 17.1757 6.26269 17.5894 7.26345C18.0031 8.26422 18.214 9.33714 18.21 10.42C18.23 14.96 14.53 18.65 9.99 18.65ZM14.51 12.49C14.26 12.37 13.04 11.77 12.82 11.68C12.59 11.6 12.43 11.56 12.26 11.8C12.09 12.05 11.62 12.61 11.48 12.77C11.34 12.94 11.19 12.96 10.94 12.83C10.69 12.71 9.89 12.44 8.95 11.6C8.21 10.94 7.72 10.13 7.57 9.88003C7.43 9.63003 7.55 9.50003 7.68 9.37003C7.79 9.26003 7.93 9.08003 8.05 8.94003C8.17 8.80003 8.22 8.69003 8.3 8.53003C8.38 8.36003 8.34 8.22003 8.28 8.10003C8.22 7.98003 7.72 6.76003 7.52 6.26003C7.32 5.78003 7.11 5.84003 6.96 5.83003H6.48C6.31 5.83003 6.05 5.89003 5.82 6.14003C5.6 6.39003 4.96 6.99003 4.96 8.21003C4.96 9.43003 5.85 10.61 5.97 10.77C6.09 10.94 7.72 13.44 10.2 14.51C10.79 14.77 11.25 14.92 11.61 15.03C12.2 15.22 12.74 15.19 13.17 15.13C13.65 15.06 14.64 14.53 14.84 13.95C15.05 13.37 15.05 12.88 14.98 12.77C14.91 12.66 14.76 12.61 14.51 12.49Z" fill="#354739"/>
</svg>
