<svg width="20" height="19" viewBox="0 0 20 19" fill="none" xmlns="http://www.w3.org/2000/svg">
<path d="M18.5441 4.13C19.2341 5.07 19.6941 6.17 19.8941 7.32C20.1041 8.57 20.0041 9.84 19.5841 11.04C19.1858 12.2122 18.4979 13.2647 17.5841 14.1C16.9154 14.7384 16.1533 15.2712 15.3241 15.68C15.7341 16.75 15.1941 17.95 14.1241 18.36C13.8841 18.45 13.6341 18.5 13.3841 18.5C12.8478 18.4978 12.333 18.2885 11.9473 17.9159C11.5616 17.5432 11.3347 17.0359 11.3141 16.5H8.24409C8.13409 17.64 7.11409 18.5 5.97409 18.37C4.91409 18.27 4.11409 17.39 4.09409 16.33C4.10409 16.14 4.13409 15.94 4.19409 15.76C2.60576 15.2314 1.21243 14.2386 0.194095 12.91C-0.135905 12.47 -0.0359054 11.84 0.424095 11.5C0.604095 11.36 0.824095 11.28 1.05409 11.28C1.77409 11.28 2.05409 11.03 2.22409 10.65C2.46409 9.93 2.60409 9.18 2.61409 8.42C2.64409 7.89 2.70409 7.37 2.78409 6.85C3.13519 5.1189 4.10146 3.57358 5.50409 2.5C7.16409 1.2 9.19409 0.5 11.2941 0.5C12.7241 0.5 14.1341 0.85 15.4041 1.5C16.6458 2.1133 17.7225 3.01513 18.5441 4.13ZM14.7241 14.81C16.5041 14 17.9041 12.54 18.5941 10.71C20.2141 5.77 16.0041 1.55 11.2941 1.55C10.9441 1.55 10.5841 1.57 10.2341 1.62C7.36409 2 4.40409 4 3.81409 7C3.43409 9 4.00409 12.29 1.05409 12.29C2.00409 13.5 3.32409 14.43 4.81409 14.87C5.66409 14.11 6.97409 14.19 7.74409 15.05C7.85409 15.17 7.94409 15.3 8.00409 15.44H11.5541C12.0741 14.42 13.3341 14 14.3541 14.54C14.5041 14.62 14.6041 14.71 14.7241 14.81ZM8.97409 7.81C8.39409 7.84 7.8841 7.4 7.85409 6.81C7.82409 6.23 8.27409 5.73 8.85409 5.69C9.43409 5.66 9.94409 6.11 9.97409 6.75C9.97958 6.88219 9.95875 7.01416 9.91281 7.13824C9.86688 7.26231 9.79675 7.37603 9.70651 7.47278C9.61627 7.56954 9.50771 7.6474 9.38713 7.70186C9.26654 7.75631 9.13635 7.78627 9.00409 7.79L8.97409 7.81ZM13.6641 7.81C13.0841 7.84 12.5741 7.4 12.5441 6.81C12.5041 6.23 12.9641 5.73 13.5441 5.69C14.1241 5.66 14.6341 6.11 14.6641 6.75C14.6841 7.3 14.2541 7.77 13.6641 7.79V7.81ZM7.71409 9.57C7.65409 9.29 7.84409 9 8.12409 8.95C8.40409 8.9 8.68409 9.08 8.74409 9.36C8.91432 9.89885 9.26201 10.3642 9.73051 10.6801C10.199 10.9961 10.7607 11.1441 11.3241 11.1C12.4641 11.16 13.5041 10.46 13.8941 9.38C14.0341 9.12 14.3541 9 14.6041 9.15C14.7841 9.25 14.8941 9.42 14.8941 9.62C14.7041 10.33 14.2641 10.95 13.6641 11.38C12.9741 11.86 12.1641 12.13 11.3241 12.14H11.2141C9.58409 12.21 8.11409 11.14 7.68409 9.56L7.71409 9.57Z" fill="#354739"/>
</svg>
