<svg width="229" height="82" viewBox="0 0 229 82" fill="none" xmlns="http://www.w3.org/2000/svg">
<path d="M76.1159 81.83H0V9.40029H54.3388C66.3711 9.40029 76.1159 19.1546 76.1159 31.1774V81.8206V81.83ZM8.12861 73.7014H67.9873V31.2908C67.9873 23.6915 61.8247 17.5289 54.2254 17.5289H8.12861V73.6919V73.7014Z" fill="#F6B446"/>
<path d="M37.5807 73.8621C20.2838 73.8621 6.1154 61.2249 5.91691 45.5537C5.83184 38.4364 8.6485 31.5933 13.847 26.2719C19.7639 20.2227 28.2895 16.7066 37.231 16.6215C37.3444 16.6215 37.4484 16.6215 37.5618 16.6215C54.8587 16.6215 69.0271 29.2587 69.2256 44.9299C69.3106 52.0471 66.494 58.8903 61.2954 64.2117C55.3786 70.2609 46.853 73.777 37.9115 73.8621C37.7981 73.8621 37.6941 73.8621 37.5807 73.8621ZM37.5618 26.6594C37.4862 26.6594 37.4011 26.6594 37.3255 26.6594C31.0305 26.7161 25.0853 29.1358 21.021 33.2946C17.6939 36.6878 15.8981 41.0074 15.9548 45.4308C16.0777 55.6861 25.9549 63.9471 37.8264 63.8336C44.1214 63.7769 50.0666 61.3572 54.1309 57.1984C57.458 53.8052 59.2538 49.4951 59.1971 45.0622C59.0743 34.8731 49.3861 26.6594 37.5712 26.6594H37.5618Z" fill="#F6B446"/>
<path d="M88.1672 44.032C86.5036 42.9166 85.6719 41.2815 85.6719 39.1359C85.6719 38.9185 85.6908 38.5971 85.738 38.1718H93.3468C93.2806 38.8334 93.3846 39.3344 93.6493 39.6557C93.9139 39.9771 94.3581 40.1378 94.982 40.1378C95.3695 40.1378 95.6909 40.0433 95.9461 39.8448C96.2013 39.6557 96.3336 39.3722 96.3336 39.0036C96.3336 38.4837 96.0784 38.0584 95.5774 37.7181C95.0765 37.3778 94.2636 36.9714 93.1483 36.4894C91.9196 35.9695 90.9177 35.478 90.1332 35.0054C89.3487 34.5328 88.6681 33.8901 88.0821 33.0678C87.5055 32.2549 87.2125 31.2341 87.2125 30.0054C87.2125 28.3986 87.619 26.9997 88.4224 25.8276C89.2258 24.6556 90.3506 23.7671 91.7872 23.1717C93.2239 22.5667 94.8686 22.2737 96.7211 22.2737C98.3752 22.2737 99.8497 22.5289 101.154 23.0488C102.449 23.5686 103.47 24.3153 104.216 25.2889C104.963 26.2624 105.332 27.425 105.332 28.7483C105.332 28.9184 105.313 29.2209 105.266 29.6462H97.5623C97.6096 29.391 97.6285 29.2209 97.6285 29.1263C97.6285 28.7199 97.5056 28.3986 97.2693 28.1717C97.033 27.9449 96.7117 27.8314 96.3052 27.8314C95.9366 27.8314 95.6436 27.9354 95.4073 28.1528C95.171 28.3702 95.0576 28.6443 95.0576 28.994C95.0576 29.4666 95.3033 29.8825 95.7948 30.2322C96.2863 30.5819 97.0708 31.0262 98.1483 31.5366C99.3771 32.1131 100.388 32.6614 101.192 33.1812C101.995 33.7011 102.695 34.3816 103.271 35.2228C103.848 36.0735 104.141 37.1037 104.141 38.3325C104.141 39.7314 103.772 40.9885 103.026 42.1038C102.279 43.2191 101.22 44.0981 99.8213 44.7314C98.4225 45.3647 96.7684 45.686 94.8591 45.686C92.0708 45.686 89.8402 45.1284 88.1766 44.0131L88.1672 44.032Z" fill="white"/>
<path d="M107.855 31.6122C108.696 30.2984 109.717 29.287 110.899 28.597C112.08 27.9071 113.347 27.5573 114.67 27.5573C115.776 27.5573 116.693 27.7842 117.411 28.2379C118.129 28.6916 118.64 29.3059 118.914 30.0904L119.339 27.7653H126.003L122.988 44.7787H116.324L116.749 42.4535C116.182 43.238 115.464 43.8524 114.575 44.3061C113.687 44.7597 112.695 44.9866 111.589 44.9866C109.878 44.9866 108.498 44.41 107.458 43.2663C106.418 42.1227 105.889 40.5348 105.889 38.5026C105.889 37.737 105.965 36.9903 106.097 36.272C106.418 34.4856 107.004 32.926 107.846 31.6122H107.855ZM117.94 35.5442C117.94 34.8447 117.751 34.306 117.383 33.9279C117.014 33.5498 116.513 33.3608 115.87 33.3608C115.133 33.3608 114.481 33.616 113.914 34.1264C113.347 34.6368 112.988 35.3551 112.817 36.2814C112.78 36.461 112.761 36.7162 112.761 37.0187C112.761 37.7181 112.94 38.2569 113.318 38.6349C113.696 39.013 114.188 39.202 114.831 39.202C115.568 39.202 116.22 38.9468 116.787 38.4364C117.354 37.926 117.713 37.2077 117.884 36.2814C117.921 36.0924 117.94 35.8466 117.94 35.5442Z" fill="white"/>
<path d="M145.171 29.0791C146.05 30.0337 146.495 31.3475 146.495 33.0111C146.495 33.616 146.438 34.2493 146.315 34.9109L144.566 44.7787H137.903L139.5 35.7616C139.538 35.4402 139.557 35.2134 139.557 35.0999C139.557 34.4761 139.377 33.9941 139.028 33.6538C138.678 33.3135 138.186 33.1434 137.563 33.1434C136.835 33.1434 136.22 33.3702 135.719 33.8334C135.218 34.2965 134.888 34.9298 134.727 35.7332L133.13 44.7787H126.428L129.443 27.7653H136.135L135.682 30.3267C136.343 29.5233 137.156 28.8711 138.12 28.3796C139.084 27.8882 140.162 27.6424 141.353 27.6424C142.997 27.6424 144.273 28.1244 145.152 29.0791H145.171Z" fill="white"/>
<path d="M156.854 37.9733C156.835 38.0489 156.825 38.1529 156.825 38.2758C156.825 38.8334 157.184 39.1075 157.903 39.1075H159.538L158.517 44.7787H155.833C151.901 44.7787 149.935 43.1151 149.935 39.7786C149.935 39.1831 149.992 38.5404 150.114 37.8599L150.889 33.427H148.678L149.689 27.7558H152.213L152.884 23.9751H159.056L158.394 27.7558H161.523L160.511 33.427H157.666L156.863 37.9639L156.854 37.9733Z" fill="white"/>
<path d="M165.266 44.2966C164.094 43.7011 163.187 42.8505 162.525 41.7541C161.873 40.6576 161.542 39.3816 161.542 37.9166C161.542 35.9033 162.024 34.098 162.979 32.5007C163.933 30.9033 165.238 29.6462 166.901 28.7388C168.565 27.8409 170.417 27.3872 172.478 27.3872C174.018 27.3872 175.37 27.6897 176.542 28.2946C177.714 28.8995 178.622 29.7502 179.283 30.8466C179.935 31.943 180.266 33.219 180.266 34.6841C180.266 36.6973 179.794 38.5026 178.848 40.1C177.903 41.6973 176.599 42.945 174.935 43.8429C173.272 44.7408 171.4 45.1851 169.33 45.1851C167.79 45.1851 166.438 44.8921 165.266 44.2872V44.2966ZM172.468 38.0773C172.979 37.2739 173.234 36.3854 173.234 35.4024C173.234 34.703 173.064 34.1831 172.724 33.8334C172.383 33.4837 171.949 33.3135 171.419 33.3135C170.54 33.3135 169.841 33.7105 169.321 34.5139C168.81 35.3173 168.546 36.2058 168.546 37.1888C168.546 37.8882 168.707 38.4081 169.037 38.7578C169.368 39.1075 169.803 39.2777 170.361 39.2777C171.24 39.2777 171.939 38.8807 172.459 38.0773H172.468Z" fill="white"/>
<path d="M184.33 44.9771C182.676 44.3439 181.504 43.3798 180.805 42.0849C180.493 41.5083 180.351 40.8561 180.342 40.2039C180.342 39.6935 180.351 39.3249 180.408 39.1075H187.346C187.327 39.6463 187.478 40.0527 187.818 40.3174C188.159 40.582 188.622 40.7049 189.208 40.7049C189.576 40.7049 189.898 40.6198 190.172 40.4402C190.446 40.2701 190.578 40.0622 190.578 39.8164C190.578 39.4667 190.361 39.1926 189.926 38.9847C189.491 38.7767 188.773 38.5404 187.771 38.2852C186.514 37.9355 185.465 37.5763 184.623 37.2077C183.782 36.8391 183.054 36.2909 182.44 35.5631C181.826 34.8353 181.514 33.8901 181.514 32.7086C181.514 31.6216 181.845 30.6292 182.506 29.7218C183.168 28.8239 184.104 28.115 185.304 27.6046C186.504 27.0942 187.903 26.839 189.491 26.839C191.23 26.839 192.724 27.132 193.971 27.718C195.219 28.304 196.164 29.098 196.788 30.0999C197.421 31.1018 197.714 32.2077 197.667 33.427H191.249C191.249 32.926 191.098 32.5385 190.796 32.2738C190.493 32.0092 190.049 31.8674 189.463 31.8674C189.094 31.8674 188.782 31.943 188.537 32.0942C188.291 32.2455 188.159 32.4534 188.159 32.7181C188.159 33.0489 188.376 33.3135 188.811 33.512C189.245 33.7105 189.983 33.9846 191.022 34.306C192.308 34.6746 193.366 35.0432 194.198 35.3929C195.039 35.7521 195.767 36.2814 196.401 36.9903C197.034 37.6992 197.346 38.5877 197.346 39.6746C197.346 41.565 196.533 43.0395 194.917 44.0887C193.3 45.1473 191.193 45.6671 188.612 45.6671C187.005 45.6671 185.578 45.4308 184.33 44.9488V44.9771Z" fill="white"/>
<path d="M105.88 54.2305L104.878 59.9017H98.5924L95.7568 75.9698H89.0555L91.891 59.9017H85.6812L86.683 54.2305H105.88Z" fill="white"/>
<path d="M119.973 60.4404C121.324 61.6597 122.005 63.3327 122.005 65.4405C122.005 66.0359 121.948 66.6692 121.825 67.3497C121.683 68.0303 121.57 68.4745 121.485 68.4083H110.521C110.502 68.8242 110.492 69.0038 110.492 69.2307C110.492 70.3838 110.984 70.9509 111.967 70.9509C112.723 70.9509 113.318 70.6106 113.753 69.3535H120.993C120.54 71.1683 119.831 72.2742 118.867 73.2477C117.903 74.2212 116.768 74.9963 115.464 75.554C114.16 76.1211 112.789 76.4046 111.352 76.4046C109.056 76.4046 107.231 75.7903 105.889 74.571C104.547 73.3517 103.876 71.6503 103.876 69.4764C103.876 68.8431 103.933 68.1815 104.065 67.5104C104.396 65.7051 105.048 64.1266 106.031 62.7845C107.014 61.4423 108.243 60.4121 109.708 59.6937C111.173 58.9754 112.77 58.6162 114.5 58.6162C116.797 58.6162 118.63 59.2306 119.982 60.4499L119.973 60.4404ZM115.171 65.1191C115.171 64.6276 115.02 64.259 114.708 64.0132C114.396 63.7675 114.008 63.6446 113.536 63.6446C112.307 63.6446 111.475 64.2873 111.04 65.5822H115.133C115.152 65.4783 115.162 65.327 115.162 65.1191H115.171Z" fill="white"/>
<path d="M126.22 62.775C127.203 61.4329 128.432 60.4026 129.897 59.6843C131.362 58.9659 132.959 58.6067 134.689 58.6067C136.948 58.6067 138.735 59.24 140.058 60.516C141.381 61.792 142.052 63.5501 142.071 65.5728H134.831C134.689 64.9017 134.235 64.4575 133.479 64.4575C132.922 64.4575 132.449 64.7127 132.052 65.2231C131.655 65.7335 131.362 66.4991 131.173 67.501C131.088 68.0775 131.05 68.4556 131.05 68.6352C131.05 69.2685 131.173 69.7505 131.419 70.0719C131.665 70.3932 132.005 70.5539 132.44 70.5539C133.215 70.5539 133.81 70.1002 134.226 69.3535H141.466C140.663 71.4518 139.377 73.2193 137.6 74.4953C135.823 75.7713 133.81 76.4046 131.551 76.4046C129.292 76.4046 127.43 75.7903 126.088 74.571C124.746 73.3517 124.075 71.6503 124.075 69.4764C124.075 68.8431 124.131 68.1815 124.264 67.5104C124.595 65.7051 125.247 64.1266 126.23 62.7845L126.22 62.775Z" fill="white"/>
<path d="M213.092 34.3627H210.134V33.4931C210.134 26.0072 204.066 19.9391 196.58 19.9391H195.71V16.6121H196.523C205.673 16.6121 213.092 24.0318 213.092 33.1812V34.3627Z" fill="#F6B446"/>
<path d="M221.23 34.3627H217.903V30.374C217.903 20.1187 209.586 11.8011 199.33 11.8011H195.342V8.84262H199.642C211.561 8.84262 221.23 18.5119 221.23 30.4307V34.3627Z" fill="#F6B446"/>
<path d="M229 34.3627H226.041V32.2833C226.041 16.4797 213.234 3.663 197.421 3.663H195.342V0.704561H197.374C214.841 0.704561 229 14.8635 229 32.3305V34.3627Z" fill="#F6B446"/>
<path d="M146.419 54.2305L142.667 75.9698H148.262L149.916 66.4234C149.916 66.4234 150.644 63.9754 153.215 64.1266C153.3 64.1077 155.824 64.0605 155.578 66.6503C155.162 69.259 153.943 75.9604 153.943 75.9604H159.472C159.472 75.9604 161.542 66.2911 161.381 64.2401C161.381 63.1247 160.984 59.3534 156.532 59.3251C156.05 59.3534 155.559 59.3723 155.077 59.4007C154.576 59.5047 153.914 59.7032 153.215 60.0907C152.043 60.7429 151.324 61.603 150.956 62.1323L150.738 62.1134L152.166 54.2116H146.419V54.2305Z" fill="white"/>
</svg>
