<svg width="570" height="140" viewBox="0 0 570 140" fill="none" xmlns="http://www.w3.org/2000/svg">
<path d="M570 0H470C431.34 0 400 31.3401 400 70C400 108.66 431.34 140 470 140H570V0Z" fill="url(#paint0_linear_0_1)"/>
<path d="M437.938 76.26C436.992 76.26 436.102 76.0733 435.268 75.7C434.435 75.32 433.702 74.8 433.068 74.14C432.442 73.4733 431.948 72.7 431.588 71.82C431.235 70.94 431.058 70 431.058 69C431.058 68 431.235 67.06 431.588 66.18C431.948 65.3 432.442 64.53 433.068 63.87C433.702 63.2033 434.435 62.6833 435.268 62.31C436.102 61.93 436.992 61.74 437.938 61.74C439.072 61.74 440.115 62.0033 441.068 62.53C442.022 63.0567 442.812 63.7567 443.438 64.63L441.588 65.62C441.155 65.0733 440.618 64.6367 439.978 64.31C439.338 63.9833 438.658 63.82 437.938 63.82C437.272 63.82 436.648 63.9567 436.068 64.23C435.488 64.5033 434.978 64.8767 434.538 65.35C434.098 65.8233 433.755 66.3733 433.508 67C433.262 67.6267 433.138 68.2933 433.138 69C433.138 69.7133 433.262 70.3833 433.508 71.01C433.755 71.63 434.098 72.18 434.538 72.66C434.985 73.1333 435.498 73.5067 436.078 73.78C436.658 74.0467 437.278 74.18 437.938 74.18C438.672 74.18 439.355 74.0167 439.988 73.69C440.628 73.3567 441.162 72.9167 441.588 72.37L443.438 73.38C442.812 74.2533 442.022 74.9533 441.068 75.48C440.115 76 439.072 76.26 437.938 76.26ZM445.725 76V66H447.805V67.06C448.152 66.6467 448.579 66.32 449.085 66.08C449.592 65.84 450.139 65.72 450.725 65.72C451.099 65.72 451.469 65.77 451.835 65.87L451.005 67.97C450.745 67.87 450.485 67.82 450.225 67.82C449.785 67.82 449.382 67.93 449.015 68.15C448.649 68.3633 448.355 68.6533 448.135 69.02C447.915 69.3867 447.805 69.7933 447.805 70.24V76H445.725ZM457.322 76.26C456.402 76.26 455.562 76.0233 454.802 75.55C454.049 75.0767 453.446 74.4433 452.992 73.65C452.546 72.85 452.322 71.9667 452.322 71C452.322 70.2667 452.452 69.5833 452.712 68.95C452.972 68.31 453.329 67.75 453.782 67.27C454.242 66.7833 454.776 66.4033 455.382 66.13C455.989 65.8567 456.636 65.72 457.322 65.72C458.089 65.72 458.792 65.88 459.432 66.2C460.072 66.5133 460.619 66.95 461.072 67.51C461.526 68.0633 461.859 68.7033 462.072 69.43C462.286 70.15 462.349 70.9167 462.262 71.73H454.552C454.639 72.19 454.806 72.6067 455.052 72.98C455.306 73.3467 455.626 73.6367 456.012 73.85C456.406 74.0633 456.842 74.1733 457.322 74.18C457.829 74.18 458.289 74.0533 458.702 73.8C459.122 73.5467 459.466 73.1967 459.732 72.75L461.842 73.24C461.442 74.1267 460.839 74.8533 460.032 75.42C459.226 75.98 458.322 76.26 457.322 76.26ZM454.482 70.14H460.162C460.096 69.66 459.926 69.2267 459.652 68.84C459.386 68.4467 459.049 68.1367 458.642 67.91C458.242 67.6767 457.802 67.56 457.322 67.56C456.849 67.56 456.409 67.6733 456.002 67.9C455.602 68.1267 455.269 68.4367 455.002 68.83C454.742 69.2167 454.569 69.6533 454.482 70.14ZM472.089 61H474.169V76H472.089V74.53C471.762 75.05 471.335 75.47 470.809 75.79C470.282 76.1033 469.665 76.26 468.959 76.26C468.232 76.26 467.552 76.1233 466.919 75.85C466.285 75.5767 465.725 75.2 465.239 74.72C464.759 74.2333 464.382 73.6733 464.109 73.04C463.835 72.4067 463.699 71.7267 463.699 71C463.699 70.2733 463.835 69.5933 464.109 68.96C464.382 68.32 464.759 67.76 465.239 67.28C465.725 66.7933 466.285 66.4133 466.919 66.14C467.552 65.8667 468.232 65.73 468.959 65.73C469.665 65.73 470.282 65.89 470.809 66.21C471.335 66.5233 471.762 66.9367 472.089 67.45V61ZM468.979 74.25C469.565 74.25 470.079 74.1067 470.519 73.82C470.959 73.5267 471.299 73.1333 471.539 72.64C471.785 72.1467 471.909 71.6 471.909 71C471.909 70.3933 471.785 69.8433 471.539 69.35C471.292 68.8567 470.949 68.4667 470.509 68.18C470.075 67.8867 469.565 67.74 468.979 67.74C468.399 67.74 467.869 67.8867 467.389 68.18C466.915 68.4733 466.535 68.8667 466.249 69.36C465.969 69.8533 465.829 70.4 465.829 71C465.829 71.6067 465.972 72.1567 466.259 72.65C466.552 73.1367 466.935 73.5267 467.409 73.82C467.889 74.1067 468.412 74.25 468.979 74.25ZM476.964 66H479.044V76H476.964V66ZM478.024 64.55C477.704 64.55 477.438 64.4467 477.224 64.24C477.011 64.0333 476.904 63.7733 476.904 63.46C476.904 63.1533 477.011 62.8967 477.224 62.69C477.438 62.4767 477.701 62.37 478.014 62.37C478.321 62.37 478.581 62.4767 478.794 62.69C479.008 62.8967 479.114 63.1533 479.114 63.46C479.114 63.7733 479.008 64.0333 478.794 64.24C478.588 64.4467 478.331 64.55 478.024 64.55ZM487.076 65.72C488.05 65.72 488.933 65.9567 489.726 66.43C490.526 66.9033 491.163 67.54 491.636 68.34C492.11 69.1333 492.346 70.0167 492.346 70.99C492.346 71.7167 492.21 72.4 491.936 73.04C491.663 73.6733 491.283 74.2333 490.796 74.72C490.316 75.2 489.756 75.5767 489.116 75.85C488.483 76.1233 487.803 76.26 487.076 76.26C486.376 76.26 485.763 76.1 485.236 75.78C484.716 75.4533 484.29 75.0367 483.956 74.53V76H481.876V61H483.956V67.45C484.29 66.9367 484.716 66.52 485.236 66.2C485.763 65.88 486.376 65.72 487.076 65.72ZM487.056 74.24C487.636 74.24 488.166 74.0933 488.646 73.8C489.126 73.5067 489.506 73.1133 489.786 72.62C490.073 72.1267 490.216 71.5833 490.216 70.99C490.216 70.3833 490.073 69.8333 489.786 69.34C489.5 68.8467 489.116 68.4567 488.636 68.17C488.156 67.8767 487.63 67.73 487.056 67.73C486.476 67.73 485.966 67.8767 485.526 68.17C485.086 68.4633 484.743 68.8567 484.496 69.35C484.25 69.8433 484.126 70.39 484.126 70.99C484.126 71.59 484.25 72.1367 484.496 72.63C484.743 73.1233 485.086 73.5167 485.526 73.81C485.966 74.0967 486.476 74.24 487.056 74.24ZM494.171 66H496.251V76H494.171V66ZM495.231 64.55C494.911 64.55 494.644 64.4467 494.431 64.24C494.217 64.0333 494.111 63.7733 494.111 63.46C494.111 63.1533 494.217 62.8967 494.431 62.69C494.644 62.4767 494.907 62.37 495.221 62.37C495.527 62.37 495.787 62.4767 496.001 62.69C496.214 62.8967 496.321 63.1533 496.321 63.46C496.321 63.7733 496.214 64.0333 496.001 64.24C495.794 64.4467 495.537 64.55 495.231 64.55ZM499.082 76V61H501.162V76H499.082ZM503.955 66H506.035V76H503.955V66ZM505.015 64.55C504.695 64.55 504.428 64.4467 504.215 64.24C504.002 64.0333 503.895 63.7733 503.895 63.46C503.895 63.1533 504.002 62.8967 504.215 62.69C504.428 62.4767 504.692 62.37 505.005 62.37C505.312 62.37 505.572 62.4767 505.785 62.69C505.998 62.8967 506.105 63.1533 506.105 63.46C506.105 63.7733 505.998 64.0333 505.785 64.24C505.578 64.4467 505.322 64.55 505.015 64.55ZM516.442 61H518.522V76H516.442V74.53C516.115 75.05 515.689 75.47 515.162 75.79C514.635 76.1033 514.019 76.26 513.312 76.26C512.585 76.26 511.905 76.1233 511.272 75.85C510.639 75.5767 510.079 75.2 509.592 74.72C509.112 74.2333 508.735 73.6733 508.462 73.04C508.189 72.4067 508.052 71.7267 508.052 71C508.052 70.2733 508.189 69.5933 508.462 68.96C508.735 68.32 509.112 67.76 509.592 67.28C510.079 66.7933 510.639 66.4133 511.272 66.14C511.905 65.8667 512.585 65.73 513.312 65.73C514.019 65.73 514.635 65.89 515.162 66.21C515.689 66.5233 516.115 66.9367 516.442 67.45V61ZM513.332 74.25C513.919 74.25 514.432 74.1067 514.872 73.82C515.312 73.5267 515.652 73.1333 515.892 72.64C516.139 72.1467 516.262 71.6 516.262 71C516.262 70.3933 516.139 69.8433 515.892 69.35C515.645 68.8567 515.302 68.4667 514.862 68.18C514.429 67.8867 513.919 67.74 513.332 67.74C512.752 67.74 512.222 67.8867 511.742 68.18C511.269 68.4733 510.889 68.8667 510.602 69.36C510.322 69.8533 510.182 70.4 510.182 71C510.182 71.6067 510.325 72.1567 510.612 72.65C510.905 73.1367 511.289 73.5267 511.762 73.82C512.242 74.1067 512.765 74.25 513.332 74.25ZM528.961 66H531.041V76H528.951L528.871 74.55C528.578 75.0633 528.181 75.4767 527.681 75.79C527.181 76.1033 526.591 76.26 525.911 76.26C525.178 76.26 524.488 76.1233 523.841 75.85C523.194 75.57 522.624 75.1833 522.131 74.69C521.644 74.1967 521.264 73.63 520.991 72.99C520.718 72.3433 520.581 71.65 520.581 70.91C520.581 70.1967 520.714 69.5267 520.981 68.9C521.248 68.2667 521.618 67.7133 522.091 67.24C522.564 66.7667 523.111 66.3967 523.731 66.13C524.358 65.8567 525.028 65.72 525.741 65.72C526.468 65.72 527.108 65.8867 527.661 66.22C528.221 66.5467 528.684 66.9667 529.051 67.48L528.961 66ZM525.861 74.25C526.448 74.25 526.961 74.1067 527.401 73.82C527.841 73.5267 528.181 73.1333 528.421 72.64C528.668 72.1467 528.791 71.6 528.791 71C528.791 70.3933 528.668 69.8433 528.421 69.35C528.174 68.8567 527.831 68.4667 527.391 68.18C526.958 67.8867 526.448 67.74 525.861 67.74C525.281 67.74 524.751 67.8867 524.271 68.18C523.791 68.4733 523.411 68.8667 523.131 69.36C522.851 69.8533 522.711 70.4 522.711 71C522.711 71.6067 522.854 72.1567 523.141 72.65C523.434 73.1367 523.818 73.5267 524.291 73.82C524.771 74.1067 525.294 74.25 525.861 74.25ZM541.031 61H543.111V76H541.031V74.53C540.704 75.05 540.278 75.47 539.751 75.79C539.224 76.1033 538.608 76.26 537.901 76.26C537.174 76.26 536.494 76.1233 535.861 75.85C535.228 75.5767 534.668 75.2 534.181 74.72C533.701 74.2333 533.324 73.6733 533.051 73.04C532.778 72.4067 532.641 71.7267 532.641 71C532.641 70.2733 532.778 69.5933 533.051 68.96C533.324 68.32 533.701 67.76 534.181 67.28C534.668 66.7933 535.228 66.4133 535.861 66.14C536.494 65.8667 537.174 65.73 537.901 65.73C538.608 65.73 539.224 65.89 539.751 66.21C540.278 66.5233 540.704 66.9367 541.031 67.45V61ZM537.921 74.25C538.508 74.25 539.021 74.1067 539.461 73.82C539.901 73.5267 540.241 73.1333 540.481 72.64C540.728 72.1467 540.851 71.6 540.851 71C540.851 70.3933 540.728 69.8433 540.481 69.35C540.234 68.8567 539.891 68.4667 539.451 68.18C539.018 67.8867 538.508 67.74 537.921 67.74C537.341 67.74 536.811 67.8867 536.331 68.18C535.858 68.4733 535.478 68.8667 535.191 69.36C534.911 69.8533 534.771 70.4 534.771 71C534.771 71.6067 534.914 72.1567 535.201 72.65C535.494 73.1367 535.878 73.5267 536.351 73.82C536.831 74.1067 537.354 74.25 537.921 74.25ZM550.17 76.26C549.25 76.26 548.41 76.0233 547.65 75.55C546.897 75.0767 546.293 74.4433 545.84 73.65C545.393 72.85 545.17 71.9667 545.17 71C545.17 70.2667 545.3 69.5833 545.56 68.95C545.82 68.31 546.177 67.75 546.63 67.27C547.09 66.7833 547.623 66.4033 548.23 66.13C548.837 65.8567 549.483 65.72 550.17 65.72C550.937 65.72 551.64 65.88 552.28 66.2C552.92 66.5133 553.467 66.95 553.92 67.51C554.373 68.0633 554.707 68.7033 554.92 69.43C555.133 70.15 555.197 70.9167 555.11 71.73H547.4C547.487 72.19 547.653 72.6067 547.9 72.98C548.153 73.3467 548.473 73.6367 548.86 73.85C549.253 74.0633 549.69 74.1733 550.17 74.18C550.677 74.18 551.137 74.0533 551.55 73.8C551.97 73.5467 552.313 73.1967 552.58 72.75L554.69 73.24C554.29 74.1267 553.687 74.8533 552.88 75.42C552.073 75.98 551.17 76.26 550.17 76.26ZM547.33 70.14H553.01C552.943 69.66 552.773 69.2267 552.5 68.84C552.233 68.4467 551.897 68.1367 551.49 67.91C551.09 67.6767 550.65 67.56 550.17 67.56C549.697 67.56 549.257 67.6733 548.85 67.9C548.45 68.1267 548.117 68.4367 547.85 68.83C547.59 69.2167 547.417 69.6533 547.33 70.14Z" fill="#354739"/>
<path d="M172 70C172 31.3401 203.34 0 242 0H328C366.66 0 398 31.3401 398 70C398 108.66 366.66 140 328 140H242C203.34 140 172 108.66 172 70Z" fill="url(#paint1_linear_0_1)"/>
<path d="M247.214 76V62H252.364C253.124 62 253.807 62.1867 254.414 62.56C255.021 62.9333 255.501 63.4367 255.854 64.07C256.214 64.6967 256.394 65.3967 256.394 66.17C256.394 66.8233 256.271 67.42 256.024 67.96C255.784 68.5 255.444 68.96 255.004 69.34C254.571 69.72 254.074 69.9933 253.514 70.16L256.894 76H254.484L251.204 70.35H249.294V76H247.214ZM249.294 68.27H252.144C252.544 68.27 252.907 68.17 253.234 67.97C253.567 67.77 253.831 67.5033 254.024 67.17C254.217 66.8367 254.314 66.46 254.314 66.04C254.314 65.62 254.217 65.2433 254.024 64.91C253.831 64.57 253.567 64.3033 253.234 64.11C252.907 63.91 252.544 63.81 252.144 63.81H249.294V68.27ZM263.127 76.26C262.207 76.26 261.367 76.0233 260.607 75.55C259.854 75.0767 259.251 74.4433 258.797 73.65C258.351 72.85 258.127 71.9667 258.127 71C258.127 70.2667 258.257 69.5833 258.517 68.95C258.777 68.31 259.134 67.75 259.587 67.27C260.047 66.7833 260.581 66.4033 261.187 66.13C261.794 65.8567 262.441 65.72 263.127 65.72C263.894 65.72 264.597 65.88 265.237 66.2C265.877 66.5133 266.424 66.95 266.877 67.51C267.331 68.0633 267.664 68.7033 267.877 69.43C268.091 70.15 268.154 70.9167 268.067 71.73H260.357C260.444 72.19 260.611 72.6067 260.857 72.98C261.111 73.3467 261.431 73.6367 261.817 73.85C262.211 74.0633 262.647 74.1733 263.127 74.18C263.634 74.18 264.094 74.0533 264.507 73.8C264.927 73.5467 265.271 73.1967 265.537 72.75L267.647 73.24C267.247 74.1267 266.644 74.8533 265.837 75.42C265.031 75.98 264.127 76.26 263.127 76.26ZM260.287 70.14H265.967C265.901 69.66 265.731 69.2267 265.457 68.84C265.191 68.4467 264.854 68.1367 264.447 67.91C264.047 67.6767 263.607 67.56 263.127 67.56C262.654 67.56 262.214 67.6733 261.807 67.9C261.407 68.1267 261.074 68.4367 260.807 68.83C260.547 69.2167 260.374 69.6533 260.287 70.14ZM273.162 76.19C272.636 76.1567 272.122 76.05 271.622 75.87C271.122 75.69 270.682 75.4467 270.302 75.14C269.929 74.8267 269.649 74.46 269.462 74.04L271.232 73.28C271.319 73.46 271.469 73.6367 271.682 73.81C271.902 73.9833 272.159 74.1267 272.452 74.24C272.746 74.3467 273.052 74.4 273.372 74.4C273.686 74.4 273.976 74.3567 274.242 74.27C274.516 74.1767 274.739 74.0367 274.912 73.85C275.086 73.6633 275.172 73.44 275.172 73.18C275.172 72.8867 275.072 72.66 274.872 72.5C274.679 72.3333 274.436 72.2067 274.142 72.12C273.849 72.0333 273.556 71.95 273.262 71.87C272.609 71.7233 272.009 71.5233 271.462 71.27C270.922 71.01 270.492 70.68 270.172 70.28C269.852 69.8733 269.692 69.3767 269.692 68.79C269.692 68.15 269.866 67.5967 270.212 67.13C270.559 66.6567 271.012 66.2933 271.572 66.04C272.139 65.7867 272.742 65.66 273.382 65.66C274.182 65.66 274.916 65.83 275.582 66.17C276.249 66.51 276.759 66.9767 277.112 67.57L275.462 68.55C275.362 68.35 275.212 68.17 275.012 68.01C274.812 67.85 274.586 67.7233 274.332 67.63C274.079 67.53 273.816 67.4733 273.542 67.46C273.202 67.4467 272.886 67.4867 272.592 67.58C272.306 67.6667 272.076 67.8067 271.902 68C271.729 68.1933 271.642 68.44 271.642 68.74C271.642 69.0333 271.746 69.2533 271.952 69.4C272.159 69.54 272.419 69.6533 272.732 69.74C273.052 69.8267 273.379 69.9233 273.712 70.03C274.306 70.2167 274.862 70.4467 275.382 70.72C275.902 70.9867 276.322 71.3167 276.642 71.71C276.962 72.1033 277.116 72.5833 277.102 73.15C277.102 73.7767 276.912 74.3267 276.532 74.8C276.159 75.2733 275.672 75.6333 275.072 75.88C274.472 76.1267 273.836 76.23 273.162 76.19ZM281.295 81H279.215V66H281.295V67.47C281.628 66.9567 282.055 66.54 282.575 66.22C283.095 65.9 283.708 65.74 284.415 65.74C285.142 65.74 285.822 65.8767 286.455 66.15C287.095 66.4233 287.655 66.8033 288.135 67.29C288.615 67.77 288.992 68.3267 289.265 68.96C289.538 69.5933 289.675 70.2733 289.675 71C289.675 71.7267 289.538 72.41 289.265 73.05C288.992 73.69 288.615 74.2533 288.135 74.74C287.655 75.22 287.095 75.5967 286.455 75.87C285.822 76.1433 285.142 76.28 284.415 76.28C283.708 76.28 283.095 76.12 282.575 75.8C282.055 75.4733 281.628 75.0567 281.295 74.55V81ZM284.395 67.75C283.815 67.75 283.305 67.8967 282.865 68.19C282.425 68.4833 282.082 68.8767 281.835 69.37C281.588 69.8567 281.465 70.4 281.465 71C281.465 71.6 281.588 72.1467 281.835 72.64C282.082 73.1333 282.425 73.5267 282.865 73.82C283.305 74.1133 283.815 74.26 284.395 74.26C284.968 74.26 285.495 74.1167 285.975 73.83C286.455 73.5367 286.838 73.1433 287.125 72.65C287.412 72.1567 287.555 71.6067 287.555 71C287.555 70.4067 287.412 69.8633 287.125 69.37C286.845 68.8767 286.465 68.4833 285.985 68.19C285.505 67.8967 284.975 67.75 284.395 67.75ZM296.085 76.26C295.165 76.26 294.325 76.0233 293.565 75.55C292.812 75.0767 292.208 74.4433 291.755 73.65C291.308 72.85 291.085 71.9667 291.085 71C291.085 70.2667 291.215 69.5833 291.475 68.95C291.735 68.31 292.092 67.75 292.545 67.27C293.005 66.7833 293.538 66.4033 294.145 66.13C294.752 65.8567 295.398 65.72 296.085 65.72C296.852 65.72 297.555 65.88 298.195 66.2C298.835 66.5133 299.382 66.95 299.835 67.51C300.288 68.0633 300.622 68.7033 300.835 69.43C301.048 70.15 301.112 70.9167 301.025 71.73H293.315C293.402 72.19 293.568 72.6067 293.815 72.98C294.068 73.3467 294.388 73.6367 294.775 73.85C295.168 74.0633 295.605 74.1733 296.085 74.18C296.592 74.18 297.052 74.0533 297.465 73.8C297.885 73.5467 298.228 73.1967 298.495 72.75L300.605 73.24C300.205 74.1267 299.602 74.8533 298.795 75.42C297.988 75.98 297.085 76.26 296.085 76.26ZM293.245 70.14H298.925C298.858 69.66 298.688 69.2267 298.415 68.84C298.148 68.4467 297.812 68.1367 297.405 67.91C297.005 67.6767 296.565 67.56 296.085 67.56C295.612 67.56 295.172 67.6733 294.765 67.9C294.365 68.1267 294.032 68.4367 293.765 68.83C293.505 69.2167 293.332 69.6533 293.245 70.14ZM302.886 66H304.966V76H302.886V66ZM303.946 64.55C303.626 64.55 303.359 64.4467 303.146 64.24C302.933 64.0333 302.826 63.7733 302.826 63.46C302.826 63.1533 302.933 62.8967 303.146 62.69C303.359 62.4767 303.623 62.37 303.936 62.37C304.243 62.37 304.503 62.4767 304.716 62.69C304.929 62.8967 305.036 63.1533 305.036 63.46C305.036 63.7733 304.929 64.0333 304.716 64.24C304.509 64.4467 304.253 64.55 303.946 64.55ZM313.039 68.08H310.939L310.929 76H308.849L308.859 68.08H307.269V66H308.859L308.849 62.86H310.929L310.939 66H313.039V68.08ZM319.395 76.26C318.475 76.26 317.635 76.0233 316.875 75.55C316.121 75.0767 315.518 74.4433 315.065 73.65C314.618 72.85 314.395 71.9667 314.395 71C314.395 70.2667 314.525 69.5833 314.785 68.95C315.045 68.31 315.401 67.75 315.855 67.27C316.315 66.7833 316.848 66.4033 317.455 66.13C318.061 65.8567 318.708 65.72 319.395 65.72C320.315 65.72 321.151 65.9567 321.905 66.43C322.665 66.9033 323.268 67.54 323.715 68.34C324.168 69.14 324.395 70.0267 324.395 71C324.395 71.7267 324.265 72.4067 324.005 73.04C323.745 73.6733 323.385 74.2333 322.925 74.72C322.471 75.2 321.941 75.5767 321.335 75.85C320.735 76.1233 320.088 76.26 319.395 76.26ZM319.395 74.18C319.948 74.18 320.445 74.0333 320.885 73.74C321.325 73.4467 321.671 73.06 321.925 72.58C322.185 72.0933 322.315 71.5667 322.315 71C322.315 70.42 322.181 69.8867 321.915 69.4C321.655 68.9133 321.305 68.5267 320.865 68.24C320.425 67.9467 319.935 67.8 319.395 67.8C318.848 67.8 318.351 67.9467 317.905 68.24C317.465 68.5333 317.115 68.9233 316.855 69.41C316.601 69.8967 316.475 70.4267 316.475 71C316.475 71.5933 316.608 72.13 316.875 72.61C317.141 73.09 317.495 73.4733 317.935 73.76C318.381 74.04 318.868 74.18 319.395 74.18Z" fill="#354739"/>
<path d="M0 0H100C138.66 0 170 31.3401 170 70C170 108.66 138.66 140 100 140H0V0Z" fill="url(#paint2_linear_0_1)"/>
<path d="M34.0331 76.26C33.0865 76.26 32.1965 76.0733 31.3631 75.7C30.5298 75.32 29.7965 74.8 29.1631 74.14C28.5365 73.4733 28.0431 72.7 27.6831 71.82C27.3298 70.94 27.1531 70 27.1531 69C27.1531 68 27.3298 67.06 27.6831 66.18C28.0431 65.3 28.5365 64.53 29.1631 63.87C29.7965 63.2033 30.5298 62.6833 31.3631 62.31C32.1965 61.93 33.0865 61.74 34.0331 61.74C35.1665 61.74 36.2098 62.0033 37.1631 62.53C38.1165 63.0567 38.9065 63.7567 39.5331 64.63L37.6831 65.62C37.2498 65.0733 36.7131 64.6367 36.0731 64.31C35.4331 63.9833 34.7531 63.82 34.0331 63.82C33.3665 63.82 32.7431 63.9567 32.1631 64.23C31.5831 64.5033 31.0731 64.8767 30.6331 65.35C30.1931 65.8233 29.8498 66.3733 29.6031 67C29.3565 67.6267 29.2331 68.2933 29.2331 69C29.2331 69.7133 29.3565 70.3833 29.6031 71.01C29.8498 71.63 30.1931 72.18 30.6331 72.66C31.0798 73.1333 31.5931 73.5067 32.1731 73.78C32.7531 74.0467 33.3731 74.18 34.0331 74.18C34.7665 74.18 35.4498 74.0167 36.0831 73.69C36.7231 73.3567 37.2565 72.9167 37.6831 72.37L39.5331 73.38C38.9065 74.2533 38.1165 74.9533 37.1631 75.48C36.2098 76 35.1665 76.26 34.0331 76.26ZM45.7516 76.26C44.8316 76.26 43.9916 76.0233 43.2316 75.55C42.4782 75.0767 41.8749 74.4433 41.4216 73.65C40.9749 72.85 40.7516 71.9667 40.7516 71C40.7516 70.2667 40.8816 69.5833 41.1416 68.95C41.4016 68.31 41.7582 67.75 42.2116 67.27C42.6716 66.7833 43.2049 66.4033 43.8116 66.13C44.4182 65.8567 45.0649 65.72 45.7516 65.72C46.6716 65.72 47.5082 65.9567 48.2616 66.43C49.0216 66.9033 49.6249 67.54 50.0716 68.34C50.5249 69.14 50.7516 70.0267 50.7516 71C50.7516 71.7267 50.6216 72.4067 50.3616 73.04C50.1016 73.6733 49.7416 74.2333 49.2816 74.72C48.8282 75.2 48.2982 75.5767 47.6916 75.85C47.0916 76.1233 46.4449 76.26 45.7516 76.26ZM45.7516 74.18C46.3049 74.18 46.8016 74.0333 47.2416 73.74C47.6816 73.4467 48.0282 73.06 48.2816 72.58C48.5416 72.0933 48.6716 71.5667 48.6716 71C48.6716 70.42 48.5382 69.8867 48.2716 69.4C48.0116 68.9133 47.6616 68.5267 47.2216 68.24C46.7816 67.9467 46.2916 67.8 45.7516 67.8C45.2049 67.8 44.7082 67.9467 44.2616 68.24C43.8216 68.5333 43.4716 68.9233 43.2116 69.41C42.9582 69.8967 42.8316 70.4267 42.8316 71C42.8316 71.5933 42.9649 72.13 43.2316 72.61C43.4982 73.09 43.8516 73.4733 44.2916 73.76C44.7382 74.04 45.2249 74.18 45.7516 74.18ZM61.7672 69.73V76H59.6872V70.24C59.6872 69.7933 59.5772 69.3867 59.3572 69.02C59.1439 68.6533 58.8539 68.3633 58.4872 68.15C58.1272 67.93 57.7205 67.82 57.2672 67.82C56.8272 67.82 56.4239 67.93 56.0572 68.15C55.6905 68.3633 55.3972 68.6533 55.1772 69.02C54.9572 69.3867 54.8472 69.7933 54.8472 70.24V76H52.7672V66H54.8472V67.06C55.1939 66.6467 55.6205 66.32 56.1272 66.08C56.6339 65.84 57.1805 65.72 57.7672 65.72C58.5072 65.72 59.1805 65.9 59.7872 66.26C60.3939 66.62 60.8739 67.1033 61.2272 67.71C61.5872 68.3167 61.7672 68.99 61.7672 69.73ZM66.7333 63.73V66H69.5533V68.08H66.7333V76H64.6533V68.08H63.4633V66H64.6533V63.73C64.6533 63.1833 64.7866 62.6867 65.0533 62.24C65.32 61.7867 65.6766 61.4267 66.1233 61.16C66.5766 60.8933 67.08 60.76 67.6333 60.76C68.0333 60.76 68.4233 60.84 68.8033 61C69.1833 61.16 69.5233 61.4067 69.8233 61.74L68.3333 63.21C68.26 63.09 68.1566 63 68.0233 62.94C67.8966 62.8733 67.7666 62.84 67.6333 62.84C67.3866 62.84 67.1733 62.9267 66.9933 63.1C66.82 63.2733 66.7333 63.4833 66.7333 63.73ZM71.4969 66H73.5769V76H71.4969V66ZM72.5569 64.55C72.2369 64.55 71.9702 64.4467 71.7569 64.24C71.5435 64.0333 71.4369 63.7733 71.4369 63.46C71.4369 63.1533 71.5435 62.8967 71.7569 62.69C71.9702 62.4767 72.2335 62.37 72.5469 62.37C72.8535 62.37 73.1135 62.4767 73.3269 62.69C73.5402 62.8967 73.6469 63.1533 73.6469 63.46C73.6469 63.7733 73.5402 64.0333 73.3269 64.24C73.1202 64.4467 72.8635 64.55 72.5569 64.55ZM83.9738 66H86.0538V76H83.9638L83.8838 74.55C83.5904 75.0633 83.1938 75.4767 82.6938 75.79C82.1938 76.1033 81.6038 76.26 80.9238 76.26C80.1904 76.26 79.5004 76.1233 78.8538 75.85C78.2071 75.57 77.6371 75.1833 77.1438 74.69C76.6571 74.1967 76.2771 73.63 76.0038 72.99C75.7304 72.3433 75.5938 71.65 75.5938 70.91C75.5938 70.1967 75.7271 69.5267 75.9938 68.9C76.2604 68.2667 76.6304 67.7133 77.1038 67.24C77.5771 66.7667 78.1238 66.3967 78.7438 66.13C79.3704 65.8567 80.0404 65.72 80.7538 65.72C81.4804 65.72 82.1204 65.8867 82.6738 66.22C83.2338 66.5467 83.6971 66.9667 84.0638 67.48L83.9738 66ZM80.8738 74.25C81.4604 74.25 81.9738 74.1067 82.4138 73.82C82.8538 73.5267 83.1938 73.1333 83.4338 72.64C83.6804 72.1467 83.8038 71.6 83.8038 71C83.8038 70.3933 83.6804 69.8433 83.4338 69.35C83.1871 68.8567 82.8438 68.4667 82.4038 68.18C81.9704 67.8867 81.4604 67.74 80.8738 67.74C80.2938 67.74 79.7638 67.8867 79.2838 68.18C78.8038 68.4733 78.4238 68.8667 78.1438 69.36C77.8638 69.8533 77.7238 70.4 77.7238 71C77.7238 71.6067 77.8671 72.1567 78.1538 72.65C78.4471 73.1367 78.8304 73.5267 79.3038 73.82C79.7838 74.1067 80.3071 74.25 80.8738 74.25ZM97.4492 69.73V76H95.3692V70.24C95.3692 69.7933 95.2592 69.3867 95.0392 69.02C94.8259 68.6533 94.5359 68.3633 94.1692 68.15C93.8092 67.93 93.4026 67.82 92.9492 67.82C92.5092 67.82 92.1059 67.93 91.7392 68.15C91.3726 68.3633 91.0792 68.6533 90.8592 69.02C90.6392 69.3867 90.5292 69.7933 90.5292 70.24V76H88.4492V66H90.5292V67.06C90.8759 66.6467 91.3026 66.32 91.8092 66.08C92.3159 65.84 92.8626 65.72 93.4492 65.72C94.1892 65.72 94.8626 65.9 95.4692 66.26C96.0759 66.62 96.5559 67.1033 96.9092 67.71C97.2692 68.3167 97.4492 68.99 97.4492 69.73ZM106.18 73.16L108.04 74.17C107.587 74.8033 107.01 75.31 106.31 75.69C105.617 76.07 104.863 76.26 104.05 76.26C103.13 76.26 102.29 76.0233 101.53 75.55C100.777 75.0767 100.173 74.4433 99.72 73.65C99.2733 72.85 99.05 71.9667 99.05 71C99.05 70.2667 99.18 69.5833 99.44 68.95C99.7 68.31 100.057 67.75 100.51 67.27C100.97 66.7833 101.503 66.4033 102.11 66.13C102.717 65.8567 103.363 65.72 104.05 65.72C104.863 65.72 105.617 65.91 106.31 66.29C107.01 66.67 107.587 67.18 108.04 67.82L106.18 68.83C105.9 68.4967 105.573 68.2433 105.2 68.07C104.827 67.89 104.443 67.8 104.05 67.8C103.503 67.8 103.007 67.95 102.56 68.25C102.12 68.5433 101.77 68.9333 101.51 69.42C101.257 69.9 101.13 70.4267 101.13 71C101.13 71.5667 101.26 72.0933 101.52 72.58C101.78 73.06 102.13 73.4467 102.57 73.74C103.017 74.0333 103.51 74.18 104.05 74.18C104.463 74.18 104.857 74.0867 105.23 73.9C105.603 73.7133 105.92 73.4667 106.18 73.16ZM104.11 79.73C103.65 79.85 103.213 79.79 102.8 79.55C102.393 79.3167 102.127 78.9733 102 78.52L103.12 78.22C103.16 78.3667 103.247 78.4767 103.38 78.55C103.513 78.63 103.657 78.65 103.81 78.61C103.963 78.57 104.077 78.4833 104.15 78.35C104.23 78.2167 104.25 78.0733 104.21 77.92C104.17 77.7667 104.083 77.6533 103.95 77.58C103.817 77.5133 103.673 77.4933 103.52 77.52L102.35 77.59L103.69 75.24L104.7 75.82L104.3 76.5C104.547 76.5867 104.76 76.7267 104.94 76.92C105.127 77.12 105.253 77.3567 105.32 77.63C105.447 78.0833 105.39 78.5167 105.15 78.93C104.917 79.3433 104.57 79.61 104.11 79.73ZM117.771 66H119.851V76H117.761L117.681 74.55C117.388 75.0633 116.991 75.4767 116.491 75.79C115.991 76.1033 115.401 76.26 114.721 76.26C113.988 76.26 113.298 76.1233 112.651 75.85C112.005 75.57 111.435 75.1833 110.941 74.69C110.455 74.1967 110.075 73.63 109.801 72.99C109.528 72.3433 109.391 71.65 109.391 70.91C109.391 70.1967 109.525 69.5267 109.791 68.9C110.058 68.2667 110.428 67.7133 110.901 67.24C111.375 66.7667 111.921 66.3967 112.541 66.13C113.168 65.8567 113.838 65.72 114.551 65.72C115.278 65.72 115.918 65.8867 116.471 66.22C117.031 66.5467 117.495 66.9667 117.861 67.48L117.771 66ZM114.671 74.25C115.258 74.25 115.771 74.1067 116.211 73.82C116.651 73.5267 116.991 73.1333 117.231 72.64C117.478 72.1467 117.601 71.6 117.601 71C117.601 70.3933 117.478 69.8433 117.231 69.35C116.985 68.8567 116.641 68.4667 116.201 68.18C115.768 67.8867 115.258 67.74 114.671 67.74C114.091 67.74 113.561 67.8867 113.081 68.18C112.601 68.4733 112.221 68.8667 111.941 69.36C111.661 69.8533 111.521 70.4 111.521 71C111.521 71.6067 111.665 72.1567 111.951 72.65C112.245 73.1367 112.628 73.5267 113.101 73.82C113.581 74.1067 114.105 74.25 114.671 74.25Z" fill="#354739"/>
<defs>
<linearGradient id="paint0_linear_0_1" x1="406.263" y1="121" x2="587.511" y2="18.2647" gradientUnits="userSpaceOnUse">
<stop stop-color="#89FF8E"/>
<stop offset="1" stop-color="#89FE8E" stop-opacity="0"/>
</linearGradient>
<linearGradient id="paint1_linear_0_1" x1="389.674" y1="121" x2="186.61" y2="-32.0167" gradientUnits="userSpaceOnUse">
<stop stop-color="#89FF8E"/>
<stop offset="1" stop-color="#89FE8E" stop-opacity="0"/>
</linearGradient>
<linearGradient id="paint2_linear_0_1" x1="163.737" y1="121" x2="-17.5108" y2="18.2647" gradientUnits="userSpaceOnUse">
<stop stop-color="#89FF8E"/>
<stop offset="1" stop-color="#89FE8E" stop-opacity="0"/>
</linearGradient>
</defs>
</svg>
