<svg width="570" height="230" viewBox="0 0 570 230" fill="none" xmlns="http://www.w3.org/2000/svg">
<path d="M486.5 77C486.5 63.469 497.469 52.5 511 52.5H748C761.531 52.5 772.5 63.469 772.5 77V233.5H486.5V77Z" stroke="white" stroke-opacity="0.15"/>
<path d="M-203.5 77C-203.5 63.469 -192.531 52.5 -179 52.5H58C71.531 52.5 82.5 63.469 82.5 77V233.5H-203.5V77Z" stroke="white" stroke-opacity="0.15"/>
<path d="M100.5 25C100.5 11.469 111.469 0.5 125 0.5H445C458.531 0.5 469.5 11.469 469.5 25V233.5H100.5V25Z" stroke="white" stroke-opacity="0.15"/>
<rect x="396.5" y="23.5" width="23" height="6" rx="3" stroke="white" stroke-opacity="0.15"/>
<rect x="334.5" y="174.5" width="60" height="6" rx="3" stroke="white" stroke-opacity="0.15"/>
<rect x="334.5" y="161.5" width="113" height="6" rx="3" stroke="white" stroke-opacity="0.15"/>
<rect x="426.5" y="23.5" width="23" height="6" rx="3" stroke="white" stroke-opacity="0.15"/>
<rect x="219.5" y="21.5" width="33" height="10" rx="5" stroke="white" stroke-opacity="0.15"/>
<rect x="420.5" y="139.5" width="28" height="15" rx="4.5" stroke="white" stroke-opacity="0.15"/>
<rect x="334.5" y="139.5" width="79" height="15" rx="4.5" stroke="white" stroke-opacity="0.15"/>
<rect x="334.5" y="117.5" width="115" height="15" rx="4.5" stroke="white" stroke-opacity="0.15"/>
<rect x="179.5" y="21.5" width="33" height="10" rx="5" stroke="white" stroke-opacity="0.15"/>
<rect x="139.5" y="21.5" width="33" height="10" rx="5" stroke="white" stroke-opacity="0.15"/>
<circle cx="126.5" cy="26.5" r="6" stroke="white" stroke-opacity="0.15"/>
<path d="M120 88C120 79.7157 126.716 73 135 73H299C307.284 73 314 79.7157 314 88V232H120V88Z" fill="url(#paint0_linear_0_1)"/>
<path d="M161.828 160.26C160.881 160.26 159.991 160.073 159.158 159.7C158.325 159.32 157.591 158.8 156.958 158.14C156.331 157.473 155.838 156.7 155.478 155.82C155.125 154.94 154.948 154 154.948 153C154.948 152 155.125 151.06 155.478 150.18C155.838 149.3 156.331 148.53 156.958 147.87C157.591 147.203 158.325 146.683 159.158 146.31C159.991 145.93 160.881 145.74 161.828 145.74C162.961 145.74 164.005 146.003 164.958 146.53C165.911 147.057 166.701 147.757 167.328 148.63L165.478 149.62C165.045 149.073 164.508 148.637 163.868 148.31C163.228 147.983 162.548 147.82 161.828 147.82C161.161 147.82 160.538 147.957 159.958 148.23C159.378 148.503 158.868 148.877 158.428 149.35C157.988 149.823 157.645 150.373 157.398 151C157.151 151.627 157.028 152.293 157.028 153C157.028 153.713 157.151 154.383 157.398 155.01C157.645 155.63 157.988 156.18 158.428 156.66C158.875 157.133 159.388 157.507 159.968 157.78C160.548 158.047 161.168 158.18 161.828 158.18C162.561 158.18 163.245 158.017 163.878 157.69C164.518 157.357 165.051 156.917 165.478 156.37L167.328 157.38C166.701 158.253 165.911 158.953 164.958 159.48C164.005 160 162.961 160.26 161.828 160.26ZM173.546 160.26C172.626 160.26 171.786 160.023 171.026 159.55C170.273 159.077 169.67 158.443 169.216 157.65C168.77 156.85 168.546 155.967 168.546 155C168.546 154.267 168.676 153.583 168.936 152.95C169.196 152.31 169.553 151.75 170.006 151.27C170.466 150.783 171 150.403 171.606 150.13C172.213 149.857 172.86 149.72 173.546 149.72C174.466 149.72 175.303 149.957 176.056 150.43C176.816 150.903 177.42 151.54 177.866 152.34C178.32 153.14 178.546 154.027 178.546 155C178.546 155.727 178.416 156.407 178.156 157.04C177.896 157.673 177.536 158.233 177.076 158.72C176.623 159.2 176.093 159.577 175.486 159.85C174.886 160.123 174.24 160.26 173.546 160.26ZM173.546 158.18C174.1 158.18 174.596 158.033 175.036 157.74C175.476 157.447 175.823 157.06 176.076 156.58C176.336 156.093 176.466 155.567 176.466 155C176.466 154.42 176.333 153.887 176.066 153.4C175.806 152.913 175.456 152.527 175.016 152.24C174.576 151.947 174.086 151.8 173.546 151.8C173 151.8 172.503 151.947 172.056 152.24C171.616 152.533 171.266 152.923 171.006 153.41C170.753 153.897 170.626 154.427 170.626 155C170.626 155.593 170.76 156.13 171.026 156.61C171.293 157.09 171.646 157.473 172.086 157.76C172.533 158.04 173.02 158.18 173.546 158.18ZM189.562 153.73V160H187.482V154.24C187.482 153.793 187.372 153.387 187.152 153.02C186.939 152.653 186.649 152.363 186.282 152.15C185.922 151.93 185.515 151.82 185.062 151.82C184.622 151.82 184.219 151.93 183.852 152.15C183.485 152.363 183.192 152.653 182.972 153.02C182.752 153.387 182.642 153.793 182.642 154.24V160H180.562V150H182.642V151.06C182.989 150.647 183.415 150.32 183.922 150.08C184.429 149.84 184.975 149.72 185.562 149.72C186.302 149.72 186.975 149.9 187.582 150.26C188.189 150.62 188.669 151.103 189.022 151.71C189.382 152.317 189.562 152.99 189.562 153.73ZM197.238 152.08H195.138L195.128 160H193.048L193.058 152.08H191.468V150H193.058L193.048 146.86H195.128L195.138 150H197.238V152.08ZM199.429 160V150H201.509V151.06C201.855 150.647 202.282 150.32 202.789 150.08C203.295 149.84 203.842 149.72 204.429 149.72C204.802 149.72 205.172 149.77 205.539 149.87L204.709 151.97C204.449 151.87 204.189 151.82 203.929 151.82C203.489 151.82 203.085 151.93 202.719 152.15C202.352 152.363 202.059 152.653 201.839 153.02C201.619 153.387 201.509 153.793 201.509 154.24V160H199.429ZM211.025 160.26C210.105 160.26 209.265 160.023 208.505 159.55C207.752 159.077 207.149 158.443 206.695 157.65C206.249 156.85 206.025 155.967 206.025 155C206.025 154.267 206.155 153.583 206.415 152.95C206.675 152.31 207.032 151.75 207.485 151.27C207.945 150.783 208.479 150.403 209.085 150.13C209.692 149.857 210.339 149.72 211.025 149.72C211.945 149.72 212.782 149.957 213.535 150.43C214.295 150.903 214.899 151.54 215.345 152.34C215.799 153.14 216.025 154.027 216.025 155C216.025 155.727 215.895 156.407 215.635 157.04C215.375 157.673 215.015 158.233 214.555 158.72C214.102 159.2 213.572 159.577 212.965 159.85C212.365 160.123 211.719 160.26 211.025 160.26ZM211.025 158.18C211.579 158.18 212.075 158.033 212.515 157.74C212.955 157.447 213.302 157.06 213.555 156.58C213.815 156.093 213.945 155.567 213.945 155C213.945 154.42 213.812 153.887 213.545 153.4C213.285 152.913 212.935 152.527 212.495 152.24C212.055 151.947 211.565 151.8 211.025 151.8C210.479 151.8 209.982 151.947 209.535 152.24C209.095 152.533 208.745 152.923 208.485 153.41C208.232 153.897 208.105 154.427 208.105 155C208.105 155.593 208.239 156.13 208.505 156.61C208.772 157.09 209.125 157.473 209.565 157.76C210.012 158.04 210.499 158.18 211.025 158.18ZM217.904 160V145H219.984V160H217.904ZM227.04 160.26C226.12 160.26 225.28 160.023 224.52 159.55C223.767 159.077 223.164 158.443 222.71 157.65C222.264 156.85 222.04 155.967 222.04 155C222.04 154.267 222.17 153.583 222.43 152.95C222.69 152.31 223.047 151.75 223.5 151.27C223.96 150.783 224.494 150.403 225.1 150.13C225.707 149.857 226.354 149.72 227.04 149.72C227.807 149.72 228.51 149.88 229.15 150.2C229.79 150.513 230.337 150.95 230.79 151.51C231.244 152.063 231.577 152.703 231.79 153.43C232.004 154.15 232.067 154.917 231.98 155.73H224.27C224.357 156.19 224.524 156.607 224.77 156.98C225.024 157.347 225.344 157.637 225.73 157.85C226.124 158.063 226.56 158.173 227.04 158.18C227.547 158.18 228.007 158.053 228.42 157.8C228.84 157.547 229.184 157.197 229.45 156.75L231.56 157.24C231.16 158.127 230.557 158.853 229.75 159.42C228.944 159.98 228.04 160.26 227.04 160.26ZM224.2 154.14H229.88C229.814 153.66 229.644 153.227 229.37 152.84C229.104 152.447 228.767 152.137 228.36 151.91C227.96 151.677 227.52 151.56 227.04 151.56C226.567 151.56 226.127 151.673 225.72 151.9C225.32 152.127 224.987 152.437 224.72 152.83C224.46 153.217 224.287 153.653 224.2 154.14ZM244.697 152.08H242.597L242.587 160H240.507L240.517 152.08H238.927V150H240.517L240.507 146.86H242.587L242.597 150H244.697V152.08ZM251.053 160.26C250.133 160.26 249.293 160.023 248.533 159.55C247.779 159.077 247.176 158.443 246.723 157.65C246.276 156.85 246.053 155.967 246.053 155C246.053 154.267 246.183 153.583 246.443 152.95C246.703 152.31 247.059 151.75 247.513 151.27C247.973 150.783 248.506 150.403 249.113 150.13C249.719 149.857 250.366 149.72 251.053 149.72C251.973 149.72 252.809 149.957 253.563 150.43C254.323 150.903 254.926 151.54 255.373 152.34C255.826 153.14 256.053 154.027 256.053 155C256.053 155.727 255.923 156.407 255.663 157.04C255.403 157.673 255.043 158.233 254.583 158.72C254.129 159.2 253.599 159.577 252.993 159.85C252.393 160.123 251.746 160.26 251.053 160.26ZM251.053 158.18C251.606 158.18 252.103 158.033 252.543 157.74C252.983 157.447 253.329 157.06 253.583 156.58C253.843 156.093 253.973 155.567 253.973 155C253.973 154.42 253.839 153.887 253.573 153.4C253.313 152.913 252.963 152.527 252.523 152.24C252.083 151.947 251.593 151.8 251.053 151.8C250.506 151.8 250.009 151.947 249.563 152.24C249.123 152.533 248.773 152.923 248.513 153.41C248.259 153.897 248.133 154.427 248.133 155C248.133 155.593 248.266 156.13 248.533 156.61C248.799 157.09 249.153 157.473 249.593 157.76C250.039 158.04 250.526 158.18 251.053 158.18ZM263.29 152.08H261.19L261.18 160H259.1L259.11 152.08H257.52V150H259.11L259.1 146.86H261.18L261.19 150H263.29V152.08ZM273.026 150H275.106V160H273.016L272.936 158.55C272.642 159.063 272.246 159.477 271.746 159.79C271.246 160.103 270.656 160.26 269.976 160.26C269.242 160.26 268.552 160.123 267.906 159.85C267.259 159.57 266.689 159.183 266.196 158.69C265.709 158.197 265.329 157.63 265.056 156.99C264.782 156.343 264.646 155.65 264.646 154.91C264.646 154.197 264.779 153.527 265.046 152.9C265.312 152.267 265.682 151.713 266.156 151.24C266.629 150.767 267.176 150.397 267.796 150.13C268.422 149.857 269.092 149.72 269.806 149.72C270.532 149.72 271.172 149.887 271.726 150.22C272.286 150.547 272.749 150.967 273.116 151.48L273.026 150ZM269.926 158.25C270.512 158.25 271.026 158.107 271.466 157.82C271.906 157.527 272.246 157.133 272.486 156.64C272.732 156.147 272.856 155.6 272.856 155C272.856 154.393 272.732 153.843 272.486 153.35C272.239 152.857 271.896 152.467 271.456 152.18C271.022 151.887 270.512 151.74 269.926 151.74C269.346 151.74 268.816 151.887 268.336 152.18C267.856 152.473 267.476 152.867 267.196 153.36C266.916 153.853 266.776 154.4 266.776 155C266.776 155.607 266.919 156.157 267.206 156.65C267.499 157.137 267.882 157.527 268.356 157.82C268.836 158.107 269.359 158.25 269.926 158.25ZM277.579 160V145H279.659V160H277.579Z" fill="#354739"/>
<defs>
<linearGradient id="paint0_linear_0_1" x1="120" y1="73" x2="319" y2="240" gradientUnits="userSpaceOnUse">
<stop stop-color="#F66646"/>
<stop offset="1" stop-color="#F6B446" stop-opacity="0"/>
</linearGradient>
</defs>
</svg>
