<svg width="46" height="46" viewBox="0 0 46 46" fill="none" xmlns="http://www.w3.org/2000/svg">
<circle cx="23" cy="23" r="23" fill="#EDE4DB"/>
<path d="M18.71 29.09C17.4967 29.09 16.575 28.6467 15.945 27.76C15.315 26.85 15 25.59 15 23.98C15 22.23 15.4433 20.6783 16.33 19.325C17.24 17.9717 18.6167 16.8633 20.46 16L21.72 18.59C20.6 19.08 19.76 19.6867 19.2 20.41C18.64 21.1333 18.36 22.02 18.36 23.07L18.395 26.36L16.61 23.805C16.89 23.595 17.2167 23.4083 17.59 23.245C17.9633 23.0817 18.3367 23 18.71 23C19.55 23 20.2617 23.2567 20.845 23.77C21.4283 24.2833 21.72 24.9833 21.72 25.87C21.72 26.85 21.44 27.6317 20.88 28.215C20.32 28.7983 19.5967 29.09 18.71 29.09ZM27.81 29.09C26.5967 29.09 25.675 28.6467 25.045 27.76C24.415 26.85 24.1 25.59 24.1 23.98C24.1 22.23 24.5433 20.6783 25.43 19.325C26.34 17.9717 27.7167 16.8633 29.56 16L30.82 18.59C29.7 19.08 28.86 19.6867 28.3 20.41C27.74 21.1333 27.46 22.02 27.46 23.07L27.495 26.36L25.71 23.805C25.99 23.595 26.3167 23.4083 26.69 23.245C27.0633 23.0817 27.4367 23 27.81 23C28.65 23 29.3617 23.2567 29.945 23.77C30.5283 24.2833 30.82 24.9833 30.82 25.87C30.82 26.85 30.54 27.6317 29.98 28.215C29.42 28.7983 28.6967 29.09 27.81 29.09Z" fill="black"/>
</svg>
