<svg width="54" height="54" viewBox="0 0 54 54" fill="none" xmlns="http://www.w3.org/2000/svg">
<rect x="0.5" y="0.5" width="53" height="53" rx="14.5" stroke="#EDE4DB"/>
<path d="M21.96 15H32.04C35.88 15 39 18.12 39 21.96V32.04C39 33.8859 38.2667 35.6562 36.9615 36.9615C35.6562 38.2667 33.8859 39 32.04 39H21.96C18.12 39 15 35.88 15 32.04V21.96C15 20.1141 15.7333 18.3438 17.0385 17.0385C18.3438 15.7333 20.1141 15 21.96 15ZM21.72 17.4C20.5743 17.4 19.4755 17.8551 18.6653 18.6653C17.8551 19.4755 17.4 20.5743 17.4 21.72V32.28C17.4 34.668 19.332 36.6 21.72 36.6H32.28C33.4257 36.6 34.5245 36.1449 35.3347 35.3347C36.1449 34.5245 36.6 33.4257 36.6 32.28V21.72C36.6 19.332 34.668 17.4 32.28 17.4H21.72ZM33.3 19.2C33.6978 19.2 34.0794 19.358 34.3607 19.6393C34.642 19.9206 34.8 20.3022 34.8 20.7C34.8 21.0978 34.642 21.4794 34.3607 21.7607C34.0794 22.042 33.6978 22.2 33.3 22.2C32.9022 22.2 32.5206 22.042 32.2393 21.7607C31.958 21.4794 31.8 21.0978 31.8 20.7C31.8 20.3022 31.958 19.9206 32.2393 19.6393C32.5206 19.358 32.9022 19.2 33.3 19.2ZM27 21C28.5913 21 30.1174 21.6321 31.2426 22.7574C32.3679 23.8826 33 25.4087 33 27C33 28.5913 32.3679 30.1174 31.2426 31.2426C30.1174 32.3679 28.5913 33 27 33C25.4087 33 23.8826 32.3679 22.7574 31.2426C21.6321 30.1174 21 28.5913 21 27C21 25.4087 21.6321 23.8826 22.7574 22.7574C23.8826 21.6321 25.4087 21 27 21ZM27 23.4C26.0452 23.4 25.1295 23.7793 24.4544 24.4544C23.7793 25.1295 23.4 26.0452 23.4 27C23.4 27.9548 23.7793 28.8705 24.4544 29.5456C25.1295 30.2207 26.0452 30.6 27 30.6C27.9548 30.6 28.8705 30.2207 29.5456 29.5456C30.2207 28.8705 30.6 27.9548 30.6 27C30.6 26.0452 30.2207 25.1295 29.5456 24.4544C28.8705 23.7793 27.9548 23.4 27 23.4Z" fill="#EDE4DB"/>
</svg>
