<svg width="170" height="62" viewBox="0 0 170 62" fill="none" xmlns="http://www.w3.org/2000/svg">
<path d="M56.5053 61.1257H0V7.35693H40.3389C49.2711 7.35693 56.5053 14.5981 56.5053 23.5234V61.1187V61.1257ZM6.03434 55.0914H50.4709V23.6076C50.4709 17.9661 45.8961 13.3913 40.2547 13.3913H6.03434V55.0844V55.0914Z" fill="white"/>
<path d="M27.8982 55.2103C15.0577 55.2103 4.53973 45.829 4.39238 34.1953C4.32923 28.9118 6.4202 23.8317 10.2794 19.8813C14.6718 15.3906 21.0009 12.7804 27.6386 12.7173C27.7228 12.7173 27.8 12.7173 27.8842 12.7173C40.7247 12.7173 51.2427 22.0986 51.3901 33.7322C51.4532 39.0158 49.3623 44.0959 45.5031 48.0462C41.1106 52.5369 34.7816 55.1471 28.1438 55.2103C28.0596 55.2103 27.9824 55.2103 27.8982 55.2103ZM27.8842 20.169C27.8281 20.169 27.7649 20.169 27.7088 20.169C23.0357 20.2111 18.6222 22.0074 15.605 25.0947C13.1352 27.6137 11.802 30.8203 11.8441 34.1041C11.9353 41.7172 19.2677 47.8498 28.0807 47.7656C32.7538 47.7235 37.1673 45.9272 40.1844 42.8399C42.6543 40.3209 43.9875 37.1213 43.9454 33.8305C43.8542 26.2665 36.6621 20.169 27.8912 20.169H27.8842Z" fill="white"/>
<path d="M65.4515 33.066C64.2166 32.238 63.5991 31.0241 63.5991 29.4313C63.5991 29.2699 63.6132 29.0314 63.6482 28.7156H69.2967C69.2475 29.2068 69.3247 29.5787 69.5212 29.8172C69.7177 30.0558 70.0474 30.1751 70.5105 30.1751C70.7982 30.1751 71.0368 30.1049 71.2262 29.9576C71.4157 29.8172 71.5139 29.6067 71.5139 29.3331C71.5139 28.9472 71.3245 28.6314 70.9526 28.3788C70.5807 28.1262 69.9773 27.8245 69.1493 27.4667C68.2371 27.0807 67.4934 26.7159 66.911 26.365C66.3286 26.0142 65.8234 25.5371 65.3884 24.9266C64.9604 24.3232 64.7428 23.5654 64.7428 22.6532C64.7428 21.4604 65.0446 20.4219 65.641 19.5518C66.2374 18.6818 67.0724 18.0222 68.1389 17.5802C69.2054 17.1311 70.4263 16.9136 71.8016 16.9136C73.0295 16.9136 74.1241 17.103 75.0924 17.4889C76.0537 17.8749 76.8115 18.4292 77.3658 19.1519C77.9202 19.8746 78.1938 20.7377 78.1938 21.72C78.1938 21.8463 78.1798 22.0708 78.1447 22.3866H72.4261C72.4612 22.1971 72.4752 22.0708 72.4752 22.0007C72.4752 21.6989 72.384 21.4604 72.2086 21.292C72.0332 21.1236 71.7946 21.0394 71.4929 21.0394C71.2192 21.0394 71.0017 21.1166 70.8263 21.2779C70.6509 21.4393 70.5667 21.6428 70.5667 21.9024C70.5667 22.2533 70.7491 22.562 71.114 22.8216C71.4788 23.0812 72.0612 23.411 72.8611 23.7899C73.7733 24.2179 74.5241 24.6249 75.1205 25.0108C75.7169 25.3967 76.2362 25.9019 76.6642 26.5264C77.0922 27.1579 77.3097 27.9227 77.3097 28.8349C77.3097 29.8734 77.0361 30.8066 76.4817 31.6346C75.9274 32.4625 75.1416 33.1151 74.1031 33.5852C73.0646 34.0553 71.8367 34.2939 70.4193 34.2939C68.3494 34.2939 66.6935 33.8799 65.4585 33.0519L65.4515 33.066Z" fill="white"/>
<path d="M80.0674 23.8456C80.6919 22.8703 81.4497 22.1195 82.3268 21.6073C83.2038 21.0951 84.1441 20.8354 85.1264 20.8354C85.9474 20.8354 86.628 21.0038 87.1612 21.3406C87.6945 21.6774 88.0734 22.1335 88.2769 22.7159L88.5926 20.9898H93.5394L91.3011 33.6198H86.3543L86.6701 31.8937C86.2491 32.4761 85.7158 32.9322 85.0562 33.269C84.3967 33.6058 83.6599 33.7742 82.839 33.7742C81.5689 33.7742 80.5445 33.3462 79.7727 32.4972C79.0008 31.6481 78.6079 30.4693 78.6079 28.9608C78.6079 28.3924 78.664 27.8381 78.7623 27.3048C79.0008 25.9787 79.4359 24.8209 80.0604 23.8456H80.0674ZM87.5542 26.7645C87.5542 26.2453 87.4138 25.8454 87.1402 25.5647C86.8665 25.284 86.4947 25.1437 86.0175 25.1437C85.4702 25.1437 84.9861 25.3331 84.5651 25.712C84.1441 26.0909 83.8774 26.6242 83.7511 27.3118C83.7231 27.4452 83.709 27.6346 83.709 27.8591C83.709 28.3784 83.8424 28.7783 84.123 29.059C84.4037 29.3397 84.7686 29.48 85.2457 29.48C85.793 29.48 86.2771 29.2905 86.6981 28.9116C87.1191 28.5327 87.3858 27.9995 87.5121 27.3118C87.5401 27.1715 87.5542 26.9891 87.5542 26.7645Z" fill="white"/>
<path d="M107.769 21.9655C108.422 22.6741 108.752 23.6495 108.752 24.8844C108.752 25.3335 108.709 25.8036 108.618 26.2947L107.32 33.6202H102.373L103.559 26.9262C103.587 26.6877 103.601 26.5193 103.601 26.4351C103.601 25.972 103.468 25.6141 103.208 25.3615C102.949 25.1089 102.584 24.9826 102.121 24.9826C101.58 24.9826 101.124 25.151 100.752 25.4948C100.381 25.8387 100.135 26.3088 100.016 26.9052L98.8299 33.6202H93.8551L96.0934 20.9901H101.061L100.724 22.8917C101.216 22.2952 101.819 21.8111 102.535 21.4462C103.25 21.0814 104.05 20.8989 104.934 20.8989C106.155 20.8989 107.103 21.2568 107.755 21.9655H107.769Z" fill="white"/>
<path d="M116.442 28.568C116.428 28.6241 116.421 28.7013 116.421 28.7925C116.421 29.2065 116.687 29.41 117.221 29.41H118.434L117.677 33.62H115.684C112.765 33.62 111.306 32.385 111.306 29.9082C111.306 29.4661 111.348 28.989 111.439 28.4838L112.014 25.1929H110.372L111.123 20.9829H112.997L113.495 18.1763H118.077L117.585 20.9829H119.908L119.157 25.1929H117.045L116.449 28.5609L116.442 28.568Z" fill="white"/>
<path d="M122.687 33.2623C121.817 32.8203 121.143 32.1888 120.652 31.3748C120.168 30.5609 119.922 29.6136 119.922 28.526C119.922 27.0315 120.28 25.6913 120.989 24.5055C121.697 23.3197 122.666 22.3865 123.9 21.7129C125.135 21.0463 126.511 20.7095 128.04 20.7095C129.184 20.7095 130.187 20.934 131.057 21.3831C131.928 21.8321 132.601 22.4636 133.092 23.2776C133.576 24.0915 133.822 25.0388 133.822 26.1263C133.822 27.6209 133.471 28.9611 132.77 30.1469C132.068 31.3327 131.1 32.2589 129.865 32.9255C128.63 33.5921 127.24 33.9219 125.704 33.9219C124.56 33.9219 123.557 33.7044 122.687 33.2553V33.2623ZM128.033 28.6453C128.412 28.0489 128.602 27.3893 128.602 26.6596C128.602 26.1404 128.475 25.7545 128.223 25.4948C127.97 25.2352 127.647 25.1089 127.254 25.1089C126.602 25.1089 126.083 25.4036 125.697 26C125.318 26.5965 125.121 27.256 125.121 27.9858C125.121 28.505 125.241 28.8909 125.486 29.1505C125.732 29.4101 126.055 29.5365 126.469 29.5365C127.121 29.5365 127.64 29.2418 128.026 28.6453H128.033Z" fill="white"/>
<path d="M136.839 33.7672C135.611 33.2971 134.741 32.5814 134.222 31.6201C133.99 31.1921 133.885 30.708 133.878 30.2238C133.878 29.8449 133.885 29.5713 133.927 29.4099H139.078C139.063 29.8098 139.176 30.1116 139.428 30.308C139.681 30.5045 140.025 30.5957 140.46 30.5957C140.733 30.5957 140.972 30.5326 141.176 30.3992C141.379 30.2729 141.477 30.1186 141.477 29.9361C141.477 29.6765 141.316 29.473 140.993 29.3187C140.67 29.1643 140.137 28.9889 139.393 28.7994C138.46 28.5398 137.681 28.2732 137.057 27.9995C136.432 27.7259 135.892 27.3189 135.436 26.7786C134.98 26.2384 134.748 25.5367 134.748 24.6596C134.748 23.8527 134.994 23.1159 135.485 22.4423C135.976 21.7757 136.671 21.2495 137.562 20.8706C138.453 20.4917 139.492 20.3022 140.67 20.3022C141.961 20.3022 143.07 20.5198 143.996 20.9548C144.922 21.3898 145.624 21.9792 146.087 22.723C146.557 23.4668 146.775 24.2877 146.74 25.1929H141.975C141.975 24.821 141.863 24.5333 141.639 24.3368C141.414 24.1404 141.084 24.0351 140.649 24.0351C140.376 24.0351 140.144 24.0913 139.962 24.2035C139.779 24.3158 139.681 24.4702 139.681 24.6666C139.681 24.9122 139.842 25.1087 140.165 25.256C140.488 25.4034 141.035 25.6069 141.807 25.8454C142.761 26.1191 143.547 26.3927 144.165 26.6523C144.789 26.919 145.329 27.3119 145.799 27.8382C146.27 28.3644 146.501 29.024 146.501 29.8309C146.501 31.2342 145.898 32.3288 144.698 33.1077C143.498 33.8935 141.933 34.2795 140.018 34.2795C138.825 34.2795 137.765 34.104 136.839 33.7462V33.7672Z" fill="white"/>
<path d="M78.6008 40.6367L77.8571 44.8467H73.191L71.086 56.7751H66.1112L68.2162 44.8467H63.6062L64.35 40.6367H78.6008Z" fill="white"/>
<path d="M89.0627 45.2468C90.0661 46.1519 90.5713 47.3939 90.5713 48.9586C90.5713 49.4007 90.5292 49.8708 90.4379 50.376C90.3327 50.8812 90.2485 51.211 90.1853 51.1619H82.046C82.032 51.4706 82.025 51.6039 82.025 51.7723C82.025 52.6283 82.3898 53.0493 83.1196 53.0493C83.6809 53.0493 84.1229 52.7967 84.4457 51.8635H89.8205C89.4837 53.2107 88.9574 54.0317 88.2417 54.7544C87.526 55.4771 86.684 56.0525 85.7157 56.4665C84.7474 56.8875 83.73 57.098 82.6635 57.098C80.9584 57.098 79.6042 56.6419 78.6078 55.7367C77.6115 54.8316 77.1133 53.5686 77.1133 51.9547C77.1133 51.4846 77.1554 50.9935 77.2536 50.4953C77.4992 49.1551 77.9833 47.9833 78.7131 46.9869C79.4428 45.9906 80.355 45.2257 81.4426 44.6925C82.5302 44.1592 83.716 43.8926 85 43.8926C86.7051 43.8926 88.0663 44.3487 89.0697 45.2538L89.0627 45.2468ZM85.4982 48.7201C85.4982 48.3552 85.3859 48.0815 85.1544 47.8991C84.9228 47.7167 84.6352 47.6254 84.2843 47.6254C83.3722 47.6254 82.7547 48.1026 82.4319 49.0639H85.4701C85.4842 48.9867 85.4912 48.8744 85.4912 48.7201H85.4982Z" fill="white"/>
<path d="M93.7007 46.9801C94.4304 45.9837 95.3426 45.2189 96.4302 44.6856C97.5178 44.1524 98.7036 43.8857 99.9876 43.8857C101.665 43.8857 102.991 44.3559 103.973 45.3031C104.955 46.2504 105.454 47.5555 105.468 49.057H100.093C99.9876 48.5588 99.6508 48.2291 99.0895 48.2291C98.6755 48.2291 98.3247 48.4185 98.03 48.7974C97.7353 49.1763 97.5178 49.7447 97.3774 50.4884C97.3143 50.9165 97.2862 51.1971 97.2862 51.3304C97.2862 51.8006 97.3774 52.1584 97.5599 52.397C97.7423 52.6355 97.9949 52.7548 98.3177 52.7548C98.893 52.7548 99.3351 52.418 99.6438 51.8637H105.019C104.422 53.4214 103.468 54.7335 102.149 55.6808C100.83 56.628 99.3351 57.0981 97.6581 57.0981C95.9811 57.0981 94.5988 56.6421 93.6025 55.7369C92.6061 54.8318 92.1079 53.5688 92.1079 51.9549C92.1079 51.4848 92.15 50.9936 92.2482 50.4955C92.4938 49.1553 92.978 47.9835 93.7077 46.9871L93.7007 46.9801Z" fill="white"/>
<path d="M158.191 25.8878H155.995V25.2422C155.995 19.685 151.49 15.1803 145.933 15.1803H145.287V12.7104H145.891C152.683 12.7104 158.191 18.2185 158.191 25.0107V25.8878Z" fill="white"/>
<path d="M164.232 25.8879H161.762V22.9269C161.762 15.3138 155.588 9.13909 147.975 9.13909H145.014V6.94287H148.206C157.054 6.94287 164.232 14.1209 164.232 22.969V25.8879Z" fill="white"/>
<path d="M170 25.8877H167.804V24.3441C167.804 12.6122 158.296 3.09759 146.557 3.09759H145.014V0.901367H146.522C159.489 0.901367 170 11.4123 170 24.3792V25.8877Z" fill="white"/>
<path d="M108.695 40.6366L105.91 56.7749H110.064L111.291 49.6881C111.291 49.6881 111.832 47.8708 113.74 47.983C113.803 47.969 115.677 47.9339 115.494 49.8565C115.186 51.7931 114.281 56.7679 114.281 56.7679H118.385C118.385 56.7679 119.922 49.5899 119.803 48.0673C119.803 47.2393 119.508 44.4396 116.203 44.4186C115.845 44.4396 115.48 44.4537 115.123 44.4747C114.751 44.5519 114.26 44.6992 113.74 44.9869C112.87 45.4711 112.337 46.1096 112.063 46.5025L111.902 46.4885L112.961 40.6226H108.695V40.6366Z" fill="white"/>
</svg>
