<svg width="54" height="54" viewBox="0 0 54 54" fill="none" xmlns="http://www.w3.org/2000/svg">
<rect x="0.5" y="0.5" width="53" height="53" rx="14.5" stroke="#EDE4DB"/>
<path d="M41 26.9138C41 26.8461 41 26.7692 40.9969 26.6799C40.9938 26.4306 40.9875 26.1505 40.9813 25.852C40.9563 24.9932 40.9125 24.1376 40.8438 23.3312C40.75 22.2201 40.6125 21.2936 40.425 20.598C40.2271 19.8721 39.8393 19.2101 39.3002 18.678C38.7612 18.146 38.0898 17.7627 37.3531 17.5663C36.4688 17.3324 34.7375 17.1877 32.3 17.0985C31.1406 17.0554 29.9 17.0277 28.6594 17.0123C28.225 17.0062 27.8219 17.0031 27.4594 17H26.5406C26.1781 17.0031 25.775 17.0062 25.3406 17.0123C24.1 17.0277 22.8594 17.0554 21.7 17.0985C19.2625 17.1908 17.5281 17.3355 16.6469 17.5663C15.91 17.7622 15.2383 18.1454 14.6992 18.6775C14.1601 19.2096 13.7724 19.8719 13.575 20.598C13.3844 21.2936 13.25 22.2201 13.1562 23.3312C13.0875 24.1376 13.0437 24.9932 13.0187 25.852C13.0094 26.1505 13.0062 26.4306 13.0031 26.6799C13.0031 26.7692 13 26.8461 13 26.9138V27.0862C13 27.1539 13 27.2308 13.0031 27.3201C13.0062 27.5694 13.0125 27.8495 13.0187 28.148C13.0437 29.0068 13.0875 29.8624 13.1562 30.6688C13.25 31.7799 13.3875 32.7064 13.575 33.402C13.975 34.8763 15.15 36.0397 16.6469 36.4337C17.5281 36.6676 19.2625 36.8122 21.7 36.9015C22.8594 36.9446 24.1 36.9723 25.3406 36.9877C25.775 36.9938 26.1781 36.9969 26.5406 37H27.4594C27.8219 36.9969 28.225 36.9938 28.6594 36.9877C29.9 36.9723 31.1406 36.9446 32.3 36.9015C34.7375 36.8092 36.4719 36.6645 37.3531 36.4337C38.85 36.0397 40.025 34.8793 40.425 33.402C40.6156 32.7064 40.75 31.7799 40.8438 30.6688C40.9125 29.8624 40.9563 29.0068 40.9813 28.148C40.9906 27.8495 40.9938 27.5694 40.9969 27.3201C40.9969 27.2308 41 27.1539 41 27.0862V26.9138ZM38.75 27.0739C38.75 27.1385 38.75 27.2093 38.7469 27.2924C38.7438 27.5325 38.7375 27.7972 38.7313 28.0834C38.7094 28.9021 38.6656 29.7208 38.6 30.4811C38.5156 31.4721 38.3969 32.2847 38.25 32.8295C38.0562 33.5405 37.4875 34.1037 36.7687 34.2915C36.1125 34.4638 34.4594 34.6023 32.2125 34.6854C31.075 34.7285 29.85 34.7562 28.6281 34.7716C28.2 34.7778 27.8031 34.7809 27.4469 34.7809H26.5531L25.3719 34.7716C24.15 34.7562 22.9281 34.7285 21.7875 34.6854C19.5406 34.5993 17.8844 34.4638 17.2312 34.2915C16.5125 34.1006 15.9437 33.5405 15.75 32.8295C15.6031 32.2847 15.4844 31.4721 15.4 30.4811C15.3344 29.7208 15.2938 28.9021 15.2688 28.0834C15.2594 27.7972 15.2563 27.5294 15.2531 27.2924C15.2531 27.2093 15.25 27.1354 15.25 27.0739V26.9261C15.25 26.8615 15.25 26.7907 15.2531 26.7076C15.2563 26.4675 15.2625 26.2028 15.2688 25.9166C15.2906 25.0979 15.3344 24.2792 15.4 23.5189C15.4844 22.5279 15.6031 21.7153 15.75 21.1705C15.9437 20.4595 16.5125 19.8963 17.2312 19.7085C17.8875 19.5362 19.5406 19.3977 21.7875 19.3146C22.925 19.2715 24.15 19.2438 25.3719 19.2284C25.8 19.2222 26.1969 19.2191 26.5531 19.2191H27.4469L28.6281 19.2284C29.85 19.2438 31.0719 19.2715 32.2125 19.3146C34.4594 19.4007 36.1156 19.5362 36.7687 19.7085C37.4875 19.8994 38.0562 20.4595 38.25 21.1705C38.3969 21.7153 38.5156 22.5279 38.6 23.5189C38.6656 24.2792 38.7063 25.0979 38.7313 25.9166C38.7406 26.2028 38.7438 26.4706 38.7469 26.7076C38.7469 26.7907 38.75 26.8646 38.75 26.9261V27.0739ZM24.2188 31.1243L31.4688 26.9692L24.2188 22.8757V31.1243Z" fill="#EDE4DB"/>
</svg>
